<svg id="Logo-MD" xmlns="http://www.w3.org/2000/svg" width="68.114" height="40" viewBox="0 0 68.114 40">
  <g id="Grupo_61" data-name="Grupo 61" transform="translate(37.715)">
    <g id="Grupo_60" data-name="Grupo 60">
      <g id="Grupo_1" data-name="Grupo 1" transform="translate(6.424 37.091)">
        <path id="Trazado_1" data-name="Trazado 1" d="M-1588.39,939.332h-.018a.531.531,0,0,1-.5-.556.53.53,0,0,1,.553-.495.522.522,0,0,1,.154.033.534.534,0,0,1,.342.519A.532.532,0,0,1-1588.39,939.332Zm.011-.613a.09.09,0,0,0-.091.082.089.089,0,0,0,.081.092.094.094,0,0,0,.095-.088.091.091,0,0,0-.061-.082.076.076,0,0,0-.021,0Zm.3.081c0,.006,0,.013,0,.019a.324.324,0,0,1,0,.037.325.325,0,0,0,0-.037C-1588.075,938.813-1588.075,938.806-1588.075,938.8Zm-.611-.025s0,.009,0,.014a.269.269,0,0,0,0,.033.271.271,0,0,1,0-.033S-1588.687,938.779-1588.686,938.775Zm.308-.275h.011a.3.3,0,0,1,.076.014.285.285,0,0,0-.073-.014.3.3,0,0,0-.1.012A.309.309,0,0,1-1588.378,938.5Z" transform="translate(1588.906 -938.28)" fill="#fff"/>
      </g>
      <g id="Grupo_2" data-name="Grupo 2" transform="translate(9.344 37.239)">
        <path id="Trazado_2" data-name="Trazado 2" d="M-1548.266,941.421h-.034a.546.546,0,0,1-.381-.186.561.561,0,0,1-.14-.41.554.554,0,0,1,.591-.523.6.6,0,0,1,.162.035.557.557,0,0,1,.36.56A.559.559,0,0,1-1548.266,941.421Zm-.337-.571a.344.344,0,0,0,.063.21A.345.345,0,0,1-1548.6,940.849Zm.335-.111a.121.121,0,0,0-.116.113.123.123,0,0,0,.03.092.112.112,0,0,0,.079.039h.009a.119.119,0,0,0,.122-.114.117.117,0,0,0-.076-.121.161.161,0,0,0-.042-.008Zm.339.062a.349.349,0,0,1,0,.081c0,.005,0,.011,0,.016s0-.011,0-.016A.349.349,0,0,0-1547.929,940.8Zm-.34-.282a.336.336,0,0,0-.332.312.342.342,0,0,1,.349-.311Zm.1.015.022.007a.346.346,0,0,1,.075.04.349.349,0,0,0-.075-.04Z" transform="translate(1548.821 -940.299)" fill="#fff"/>
      </g>
      <g id="Grupo_3" data-name="Grupo 3" transform="translate(16.196 38.842)">
        <path id="Trazado_3" data-name="Trazado 3" d="M-1454.182,963.373a.578.578,0,0,1-.516-.317.579.579,0,0,1,.261-.779.579.579,0,0,1,.464-.025.607.607,0,0,1,.309.281.588.588,0,0,1,.03.451.567.567,0,0,1-.294.329A.569.569,0,0,1-1454.182,963.373Zm.333-.438a.352.352,0,0,1-.174.181l-.014.007.014-.007A.35.35,0,0,0-1453.849,962.935Zm-.33-.283a.129.129,0,0,0-.06.015.143.143,0,0,0-.067.194.144.144,0,0,0,.187.057.135.135,0,0,0,.073-.079.14.14,0,0,0-.006-.108.156.156,0,0,0-.08-.071A.142.142,0,0,0-1454.179,962.652Zm-.212-.148a.359.359,0,0,0-.14.37A.36.36,0,0,1-1454.391,962.5Zm.522.108.011.02.008.017-.008-.017Z" transform="translate(1454.759 -962.215)" fill="#fff"/>
      </g>
      <g id="Grupo_4" data-name="Grupo 4" transform="translate(4.343 33.957)">
        <path id="Trazado_4" data-name="Trazado 4" d="M-1616.934,896.516a.542.542,0,0,1-.294-.087.549.549,0,0,1-.154-.753.534.534,0,0,1,.449-.243.535.535,0,0,1,.192.035l.016.007.012.006a.761.761,0,0,1,.072.038.549.549,0,0,1,.16.753A.548.548,0,0,1-1616.934,896.516Zm.284-.386-.012.021c-.006.009-.012.017-.019.025.007-.008.013-.016.019-.025Zm-.283-.258a.1.1,0,0,0-.083.045.106.106,0,0,0,.028.145.1.1,0,0,0,.054.015.108.108,0,0,0,.09-.048.1.1,0,0,0-.031-.14l-.019-.009-.008,0A.1.1,0,0,0-1616.933,895.872Zm0-.219a.316.316,0,0,0-.25.123A.316.316,0,0,1-1616.934,895.652Zm.168.047.008,0a.329.329,0,0,1,.056.047.323.323,0,0,0-.056-.047Zm-.053-.026.013.006.037.019-.038-.019-.012-.006Zm-.112-.021a.315.315,0,0,1,.1.015A.317.317,0,0,0-1616.931,895.652Z" transform="translate(1617.469 -895.433)" fill="#fff"/>
      </g>
      <g id="Grupo_5" data-name="Grupo 5" transform="translate(2.067 32.98)">
        <path id="Trazado_5" data-name="Trazado 5" d="M-1648.209,883.1a.5.5,0,0,1-.277-.083.513.513,0,0,1-.146-.709.512.512,0,0,1,.423-.227.5.5,0,0,1,.182.034.541.541,0,0,1,.1.052.506.506,0,0,1,.144.7A.5.5,0,0,1-1648.209,883.1Zm-.186-.288.03.023a.3.3,0,0,0,.037.02.29.29,0,0,1-.037-.02A.3.3,0,0,1-1648.395,882.817Zm.359-.452a.289.289,0,0,1,.068.391.287.287,0,0,1-.034.042.289.289,0,0,0,.034-.042A.288.288,0,0,0-1648.035,882.365Zm-.174.16a.073.073,0,0,0-.06.032.074.074,0,0,0,.025.1.068.068,0,0,0,.035.009.068.068,0,0,0,.058-.029.07.07,0,0,0-.018-.1.129.129,0,0,0-.022-.011A.073.073,0,0,0-1648.21,882.525Zm.109-.2a.339.339,0,0,1,.041.021A.342.342,0,0,0-1648.1,882.327Zm-.108-.022a.291.291,0,0,1,.048,0A.3.3,0,0,0-1648.209,882.305Z" transform="translate(1648.716 -882.086)" fill="#fff"/>
      </g>
      <g id="Grupo_6" data-name="Grupo 6" transform="translate(12.246 36.864)">
        <path id="Trazado_6" data-name="Trazado 6" d="M-1508.392,936.382h-.028a.6.6,0,0,1-.561-.639.605.605,0,0,1,.626-.561.617.617,0,0,1,.178.038.6.6,0,0,1,.382.6A.594.594,0,0,1-1508.392,936.382Zm0-.219h0a.376.376,0,0,0,.379-.354.378.378,0,0,0-.173-.349.378.378,0,0,1,.173.349A.382.382,0,0,1-1508.392,936.163Zm-.269-.12a.384.384,0,0,0,.255.119h0A.388.388,0,0,1-1508.661,936.043Zm.281-.423h0a.165.165,0,0,0-.165.152.159.159,0,0,0,.151.172h0a.162.162,0,0,0,.159-.149.159.159,0,0,0-.1-.164.175.175,0,0,0-.046-.01Zm-.372.071a.372.372,0,0,0-.01.067.4.4,0,0,0,0,.072.4.4,0,0,1,0-.072A.371.371,0,0,1-1508.752,935.691Zm.383-.29a.389.389,0,0,1,.1.019.382.382,0,0,0-.1-.019Z" transform="translate(1508.982 -935.181)" fill="#fff"/>
      </g>
      <g id="Grupo_7" data-name="Grupo 7" transform="translate(6.751 34.513)">
        <path id="Trazado_7" data-name="Trazado 7" d="M-1583.833,904.187a.574.574,0,0,1-.32-.1.565.565,0,0,1-.245-.366.568.568,0,0,1,.087-.433.568.568,0,0,1,.475-.256.568.568,0,0,1,.209.04.465.465,0,0,1,.113.059.559.559,0,0,1,.24.354.579.579,0,0,1-.083.442A.569.569,0,0,1-1583.833,904.187Zm-.168-.262a.357.357,0,0,0,.168.042A.357.357,0,0,1-1584,903.925Zm.458-.108a.351.351,0,0,1-.286.151A.351.351,0,0,0-1583.543,903.817Zm-.623-.075a.346.346,0,0,0,.11.148A.348.348,0,0,1-1584.166,903.742Zm.687-.159a.361.361,0,0,1-.058.225A.36.36,0,0,0-1583.479,903.582Zm-.356-.109a.135.135,0,0,0-.113.061.133.133,0,0,0-.022.1.131.131,0,0,0,.057.085.139.139,0,0,0,.192-.035.142.142,0,0,0,.021-.108.127.127,0,0,0-.056-.082.081.081,0,0,0-.021-.012A.151.151,0,0,0-1583.835,903.474Zm0-.219a.351.351,0,0,0-.294.158.35.35,0,0,0-.059.236.351.351,0,0,1,.059-.236A.352.352,0,0,1-1583.836,903.254Zm.216.072a.324.324,0,0,1,.052.046A.324.324,0,0,0-1583.62,903.326Zm-.215-.072a.358.358,0,0,1,.132.026l.022.009-.021-.009A.359.359,0,0,0-1583.835,903.254Z" transform="translate(1584.409 -903.035)" fill="#fff"/>
      </g>
      <g id="Grupo_8" data-name="Grupo 8" transform="translate(0 31.614)">
        <path id="Trazado_8" data-name="Trazado 8" d="M-1676.609,864.364a.475.475,0,0,1-.264-.079.468.468,0,0,1-.2-.3.479.479,0,0,1,.071-.365.475.475,0,0,1,.4-.215.474.474,0,0,1,.175.033.37.37,0,0,1,.079.041l.014.009a.48.48,0,0,1,.13.663A.481.481,0,0,1-1676.609,864.364Zm-.232-.593a.261.261,0,0,0-.021.168.252.252,0,0,0,.109.162.259.259,0,0,0,.144.044h0a.259.259,0,0,1-.144-.044.252.252,0,0,1-.109-.162A.261.261,0,0,1-1676.841,863.771Zm.373-.106a.264.264,0,0,1,.078.364.259.259,0,0,1-.036.043.251.251,0,0,0,.036-.043.263.263,0,0,0-.074-.362Zm-.138.179a.04.04,0,0,0-.035.018.042.042,0,0,0-.007.033.035.035,0,0,0,.015.022.043.043,0,0,0,.061-.01.043.043,0,0,0-.015-.059l0,0A.045.045,0,0,0-1676.606,863.843Zm0-.219a.258.258,0,0,0-.195.087A.259.259,0,0,1-1676.606,863.623Z" transform="translate(1677.086 -863.404)" fill="#fff"/>
      </g>
      <g id="Grupo_9" data-name="Grupo 9" transform="translate(9.221 34.627)">
        <path id="Trazado_9" data-name="Trazado 9" d="M-1549.889,905.831a.6.6,0,0,1-.337-.1.622.622,0,0,1-.177-.854.618.618,0,0,1,.514-.277.606.606,0,0,1,.224.043.656.656,0,0,1,.119.062.605.605,0,0,1,.26.388.615.615,0,0,1-.091.465A.609.609,0,0,1-1549.889,905.831Zm0-.219h0a.393.393,0,0,0,.312-.151A.393.393,0,0,1-1549.89,905.612Zm-.289-.126a.38.38,0,0,0,.071.06.389.389,0,0,0,.217.066.389.389,0,0,1-.217-.066A.388.388,0,0,1-1550.178,905.486Zm.685-.263a.4.4,0,0,1-.061.2A.4.4,0,0,0-1549.493,905.223Zm-.4-.186a.178.178,0,0,0-.149.079.18.18,0,0,0,.051.247.178.178,0,0,0,.245-.048.177.177,0,0,0,.027-.135.172.172,0,0,0-.074-.11.231.231,0,0,0-.041-.021A.168.168,0,0,0-1549.889,905.037Zm.247-.133a.39.39,0,0,1,.141.23c0,.007,0,.015,0,.022s0-.015,0-.022A.388.388,0,0,0-1549.642,904.9Zm-.546.048a.39.39,0,0,0-.033.043.4.4,0,0,0-.037.073.4.4,0,0,1,.037-.073A.385.385,0,0,1-1550.187,904.952Zm.3-.135a.394.394,0,0,1,.114.017A.392.392,0,0,0-1549.889,904.817Z" transform="translate(1550.502 -904.598)" fill="#fff"/>
      </g>
      <g id="Grupo_10" data-name="Grupo 10" transform="translate(15.039 35.981)">
        <path id="Trazado_10" data-name="Trazado 10" d="M-1469.989,924.381h-.043a.642.642,0,0,1-.6-.676.643.643,0,0,1,.681-.6.624.624,0,0,1,.186.041.643.643,0,0,1,.41.638A.639.639,0,0,1-1469.989,924.381Zm-.241-.293a.407.407,0,0,0,.211.072h0A.408.408,0,0,1-1470.231,924.088Zm.657-.369a.4.4,0,0,1,0,.048.421.421,0,0,1-.055.184.421.421,0,0,0,.055-.184A.372.372,0,0,0-1469.573,923.719Zm-.42-.18a.209.209,0,0,0-.2.19.2.2,0,0,0,.189.212h.017a.2.2,0,0,0,.2-.189.2.2,0,0,0-.131-.2.187.187,0,0,0-.056-.013Zm0-.219a.424.424,0,0,0-.418.372.429.429,0,0,1,.418-.372h.028l.022,0-.022,0Z" transform="translate(1470.632 -923.101)" fill="#fff"/>
      </g>
      <g id="Grupo_11" data-name="Grupo 11" transform="translate(19.274 37.243)">
        <path id="Trazado_11" data-name="Trazado 11" d="M-1411.881,941.6a.612.612,0,0,1-.554-.343.629.629,0,0,1,.276-.831.632.632,0,0,1,.5-.024.63.63,0,0,1,.33.3.622.622,0,0,1-.277.833A.632.632,0,0,1-1411.881,941.6Zm-.362-.45.005.011.012.023-.012-.023Zm.362-.35a.186.186,0,0,0-.082.019.184.184,0,0,0-.078.246.176.176,0,0,0,.161.1.183.183,0,0,0,.081-.019.183.183,0,0,0,.082-.244.187.187,0,0,0-.1-.087A.191.191,0,0,0-1411.881,940.8Zm.118-.2.027.009.035.016-.035-.016Z" transform="translate(1412.496 -940.365)" fill="#fff"/>
      </g>
      <g id="Grupo_12" data-name="Grupo 12" transform="translate(11.676 34.298)">
        <path id="Trazado_12" data-name="Trazado 12" d="M-1516.146,901.417a.644.644,0,0,1-.364-.112.65.65,0,0,1-.28-.415.661.661,0,0,1,.1-.5.651.651,0,0,1,.548-.3.653.653,0,0,1,.239.045.605.605,0,0,1,.121.06.669.669,0,0,1,.191.92A.658.658,0,0,1-1516.146,901.417Zm-.18-.259a.426.426,0,0,0,.18.04h0A.429.429,0,0,1-1516.326,901.158Zm.545-.153a.442.442,0,0,1-.365.192A.441.441,0,0,0-1515.781,901.005Zm-.763-.432a.44.44,0,0,0-.031.272.433.433,0,0,0,.14.241.435.435,0,0,1-.14-.241A.44.44,0,0,1-1516.545,900.574Zm.4-.041a.217.217,0,0,0-.182.1.224.224,0,0,0-.033.169.217.217,0,0,0,.094.138.223.223,0,0,0,.309-.063.225.225,0,0,0-.065-.309.185.185,0,0,0-.034-.017A.235.235,0,0,0-1516.146,900.533Zm0-.219a.433.433,0,0,0-.365.2l0,0,0,0A.434.434,0,0,1-1516.146,900.313Zm.219.057.022.013a.456.456,0,0,1,.053.041.433.433,0,0,0-.052-.041Z" transform="translate(1516.803 -900.094)" fill="#fff"/>
      </g>
      <g id="Grupo_13" data-name="Grupo 13" transform="translate(14.039 33.533)">
        <path id="Trazado_13" data-name="Trazado 13" d="M-1483.658,891.061a.7.7,0,0,1-.391-.12.7.7,0,0,1-.3-.45.709.709,0,0,1,.1-.536.7.7,0,0,1,.587-.316.7.7,0,0,1,.253.047.634.634,0,0,1,.141.075.689.689,0,0,1,.3.444.7.7,0,0,1-.1.536A.7.7,0,0,1-1483.658,891.061Zm-.213-.269a.48.48,0,0,0,.213.05h0A.481.481,0,0,1-1483.871,890.791Zm.572-.112a.481.481,0,0,1-.359.162A.48.48,0,0,0-1483.3,890.68Zm-.829-.189a.484.484,0,0,0,.154.234A.484.484,0,0,1-1484.128,890.491Zm.467-.413a.266.266,0,0,0-.223.12.271.271,0,0,0-.041.205.27.27,0,0,0,.116.172.268.268,0,0,0,.15.047.265.265,0,0,0,.223-.123.268.268,0,0,0,.041-.2.26.26,0,0,0-.114-.167.243.243,0,0,0-.051-.029A.273.273,0,0,0-1483.661,890.078Zm.486.217a.482.482,0,0,1-.041.256A.481.481,0,0,0-1483.174,890.3Zm-.207-.347a.473.473,0,0,1,.191.265A.47.47,0,0,0-1483.381,889.948Zm-.279-.09a.486.486,0,0,1,.177.033.429.429,0,0,1,.1.052h0a.43.43,0,0,0-.1-.052A.485.485,0,0,0-1483.661,889.858Zm0,0a.486.486,0,0,0-.11.013A.486.486,0,0,1-1483.663,889.858Z" transform="translate(1484.367 -889.639)" fill="#fff"/>
      </g>
      <g id="Grupo_14" data-name="Grupo 14" transform="translate(17.643 34.612)">
        <path id="Trazado_14" data-name="Trazado 14" d="M-1434.212,905.77h-.035a.684.684,0,0,1-.643-.731.681.681,0,0,1,.727-.641.768.768,0,0,1,.2.044.684.684,0,0,1,.435.681A.688.688,0,0,1-1434.212,905.77Zm-.282-.319a.48.48,0,0,0,.26.1h0A.482.482,0,0,1-1434.494,905.451Zm.738-.253a.47.47,0,0,1-.455.352A.47.47,0,0,0-1433.756,905.2Zm-.457-.364a.245.245,0,0,0-.241.232.249.249,0,0,0,.234.265h.008a.25.25,0,0,0,.251-.235.248.248,0,0,0-.154-.246.318.318,0,0,0-.083-.016Zm0-.219a.464.464,0,0,0-.458.438.456.456,0,0,0,0,.055.457.457,0,0,1,0-.055.464.464,0,0,1,.459-.438h0Zm.185.035a.471.471,0,0,1,.287.453A.465.465,0,0,0-1434.029,904.649Zm-.152-.034.055.007-.055-.007Z" transform="translate(1434.892 -904.395)" fill="#fff"/>
      </g>
      <g id="Grupo_15" data-name="Grupo 15" transform="translate(22.026 35.122)">
        <path id="Trazado_15" data-name="Trazado 15" d="M-1374.057,912.694a.659.659,0,0,1-.595-.373.651.651,0,0,1-.035-.5.658.658,0,0,1,.334-.385.667.667,0,0,1,.536-.025.651.651,0,0,1,.35.325.649.649,0,0,1,.038.5.662.662,0,0,1-.333.389A.652.652,0,0,1-1374.057,912.694Zm-.371-.421a.441.441,0,0,0,.371.2A.441.441,0,0,1-1374.428,912.273Zm.645.105a.454.454,0,0,1-.076.049.435.435,0,0,1-.2.047.435.435,0,0,0,.2-.047A.446.446,0,0,0-1373.783,912.379Zm-.273-.575a.227.227,0,0,0-.1.025.223.223,0,0,0-.114.13.216.216,0,0,0,.011.167.226.226,0,0,0,.2.13.22.22,0,0,0,.1-.024.226.226,0,0,0,.114-.133.216.216,0,0,0-.013-.166.217.217,0,0,0-.118-.113A.216.216,0,0,0-1374.056,911.8Zm.41.062a.433.433,0,0,1,.011.3.459.459,0,0,1-.033.077.467.467,0,0,0,.033-.077A.432.432,0,0,0-1373.646,911.866Zm-.592-.243-.017.008a.44.44,0,0,0-.224.258.434.434,0,0,0,.016.32.434.434,0,0,1-.016-.32.44.44,0,0,1,.224-.258Z" transform="translate(1374.721 -911.366)" fill="#fff"/>
      </g>
      <g id="Grupo_16" data-name="Grupo 16" transform="translate(16.235 32.353)">
        <path id="Trazado_16" data-name="Trazado 16" d="M-1453.456,875.036a.76.76,0,0,1-.42-.126.761.761,0,0,1-.326-.488.758.758,0,0,1,.114-.572.761.761,0,0,1,.635-.342.76.76,0,0,1,.276.052.834.834,0,0,1,.138.071.77.77,0,0,1,.222,1.062A.767.767,0,0,1-1453.456,875.036Zm0-1.09a.326.326,0,0,0-.272.147.321.321,0,0,0-.048.243.323.323,0,0,0,.138.208.323.323,0,0,0,.178.054.33.33,0,0,0,.274-.147.329.329,0,0,0-.094-.451.393.393,0,0,0-.059-.03A.328.328,0,0,0-1453.453,873.946Zm-.545.317a.543.543,0,0,0,.011.115.5.5,0,0,0,.013.053.475.475,0,0,1-.013-.053A.536.536,0,0,1-1454,874.263Zm.545-.537a.543.543,0,0,0-.36.136.552.552,0,0,1,.557-.1l.042.019-.042-.019A.541.541,0,0,0-1453.453,873.726Z" transform="translate(1454.216 -873.507)" fill="#fff"/>
      </g>
      <g id="Grupo_17" data-name="Grupo 17" transform="translate(19.967 32.793)">
        <path id="Trazado_17" data-name="Trazado 17" d="M-1402.24,881.009h-.047a.748.748,0,0,1-.692-.784.743.743,0,0,1,.784-.692.752.752,0,0,1,.224.05.74.74,0,0,1,.464.734A.735.735,0,0,1-1402.24,881.009Zm0-.219h0a.517.517,0,0,0,.515-.488.519.519,0,0,0-.326-.516.539.539,0,0,0-.159-.036h0a.531.531,0,0,1,.159.036.52.52,0,0,1,.326.516A.517.517,0,0,1-1402.24,880.789Zm-.082-.007.049.006h0Zm.078-.814a.3.3,0,0,0-.3.281.307.307,0,0,0,.284.319.3.3,0,0,0,.315-.281.3.3,0,0,0-.187-.3.311.311,0,0,0-.095-.021Z" transform="translate(1402.98 -879.53)" fill="#fff"/>
      </g>
      <g id="Grupo_18" data-name="Grupo 18" transform="translate(18.2 30.79)">
        <path id="Trazado_18" data-name="Trazado 18" d="M-1426.415,853.8a.826.826,0,0,1-.456-.138.831.831,0,0,1-.231-1.142.815.815,0,0,1,.685-.371.812.812,0,0,1,.294.055.794.794,0,0,1,.163.086.809.809,0,0,1,.348.515.827.827,0,0,1-.118.624A.817.817,0,0,1-1426.415,853.8Zm-.032-.22h0Zm-.473-.271a.6.6,0,0,0,.163.167A.6.6,0,0,1-1426.92,853.3Zm.5-.72a.38.38,0,0,0-.319.173.389.389,0,0,0,.108.535.389.389,0,0,0,.214.065.38.38,0,0,0,.319-.172.389.389,0,0,0,.055-.293.38.38,0,0,0-.164-.242.382.382,0,0,0-.078-.042A.37.37,0,0,0-1426.418,852.585Zm.349-.106a.6.6,0,0,1,.241.368.593.593,0,0,1,.012.087.61.61,0,0,0-.012-.087A.594.594,0,0,0-1426.069,852.479Zm-.351-.114a.6.6,0,0,0-.5.272.6.6,0,0,0-.071.151.6.6,0,0,1,.071-.151A.6.6,0,0,1-1426.42,852.365Zm.2.035.013.005a.6.6,0,0,1,.108.055.593.593,0,0,0-.108-.055Z" transform="translate(1427.237 -852.146)" fill="#fff"/>
      </g>
      <g id="Grupo_19" data-name="Grupo 19" transform="translate(24.375 32.537)">
        <path id="Trazado_19" data-name="Trazado 19" d="M-1341.765,877.456a.7.7,0,0,1-.634-.4.713.713,0,0,1-.039-.548.705.705,0,0,1,.358-.412.727.727,0,0,1,.574-.028.71.71,0,0,1,.38.351.706.706,0,0,1,.039.543.706.706,0,0,1-.357.413A.711.711,0,0,1-1341.765,877.456Zm-.483-.809a.5.5,0,0,0,.044.316.486.486,0,0,0,.439.274.486.486,0,0,1-.439-.274A.5.5,0,0,1-1342.248,876.647Zm.664.555a.494.494,0,0,1-.181.034A.494.494,0,0,0-1341.584,877.2Zm.274-.265a.489.489,0,0,1-.223.241A.488.488,0,0,0-1341.31,876.937Zm-.453-.471a.277.277,0,0,0-.124.029.269.269,0,0,0-.137.158.276.276,0,0,0,.016.212.27.27,0,0,0,.243.152.278.278,0,0,0,.125-.03.272.272,0,0,0,.137-.158.271.271,0,0,0-.016-.209.275.275,0,0,0-.146-.136A.282.282,0,0,0-1341.763,876.466Zm.441.057a.491.491,0,0,1,.039.331A.49.49,0,0,0-1341.322,876.523Zm-.65-.231-.012.006a.486.486,0,0,0-.224.228.485.485,0,0,1,.225-.228Zm.376-.018.01,0a.492.492,0,0,1,.262.242.492.492,0,0,0-.262-.242Z" transform="translate(1342.476 -876.028)" fill="#fff"/>
      </g>
      <g id="Grupo_20" data-name="Grupo 20" transform="translate(21.948 30.58)">
        <path id="Trazado_20" data-name="Trazado 20" d="M-1374.99,850.866h-.043a.807.807,0,0,1-.75-.844.8.8,0,0,1,.842-.748.74.74,0,0,1,.243.055.793.793,0,0,1,.5.791A.8.8,0,0,1-1374.99,850.866Zm0-.219h0a.583.583,0,0,0,.575-.539A.583.583,0,0,1-1374.99,850.646Zm0-.936a.36.36,0,0,0-.359.336.36.36,0,0,0,.34.38h.016a.361.361,0,0,0,.358-.334.358.358,0,0,0-.227-.358.307.307,0,0,0-.106-.024Zm.226-.172a.576.576,0,0,1,.347.545A.575.575,0,0,0-1374.761,849.538Zm-.8.449c0,.015,0,.031,0,.046s0,.018,0,.027c0-.009,0-.018,0-.027S-1375.562,850-1375.56,849.987Zm.6-.5h.012a.577.577,0,0,1,.067.008.564.564,0,0,0-.068-.008Z" transform="translate(1375.784 -849.271)" fill="#fff"/>
      </g>
      <g id="Grupo_21" data-name="Grupo 21" transform="translate(19.862 28.891)">
        <path id="Trazado_21" data-name="Trazado 21" d="M-1403.538,827.967a.882.882,0,0,1-.492-.15.891.891,0,0,1-.381-.573.879.879,0,0,1,.134-.665.886.886,0,0,1,.743-.4.875.875,0,0,1,.318.06.858.858,0,0,1,.174.093.9.9,0,0,1,.246,1.234A.889.889,0,0,1-1403.538,827.967Zm-.307-.294a.663.663,0,0,0,.307.075h0A.663.663,0,0,1-1403.845,827.673Zm.722-1.128a.678.678,0,0,1,.145.9.675.675,0,0,1-.088.107.675.675,0,0,0,.088-.107A.677.677,0,0,0-1403.123,826.545Zm-.412.074a.452.452,0,0,0-.379.2.446.446,0,0,0-.069.336.456.456,0,0,0,.195.292.448.448,0,0,0,.25.076.453.453,0,0,0,.378-.2.457.457,0,0,0-.128-.629.415.415,0,0,0-.089-.048A.437.437,0,0,0-1403.535,826.619Zm-.564.088a.66.66,0,0,0-.107.433A.662.662,0,0,1-1404.1,826.707Zm.564-.307a.668.668,0,0,0-.552.289A.669.669,0,0,1-1403.535,826.4Z" transform="translate(1404.428 -826.18)" fill="#fff"/>
      </g>
      <g id="Grupo_22" data-name="Grupo 22" transform="translate(26.242 29.569)">
        <path id="Trazado_22" data-name="Trazado 22" d="M-1316.074,836.985a.766.766,0,0,1-.689-.426.77.77,0,0,1-.04-.591.759.759,0,0,1,.385-.442.779.779,0,0,1,.62-.027.765.765,0,0,1,.408.376.773.773,0,0,1-.345,1.03A.753.753,0,0,1-1316.074,836.985Zm-.526-.605a.557.557,0,0,0,.032.081.549.549,0,0,0,.494.3.556.556,0,0,1-.494-.3A.559.559,0,0,1-1316.6,836.38Zm.757.334a.546.546,0,0,1-.076.029A.542.542,0,0,0-1315.843,836.713Zm-.233-.829a.339.339,0,0,0-.15.035.322.322,0,0,0-.163.188.33.33,0,0,0,.017.254.336.336,0,0,0,.3.184.32.32,0,0,0,.143-.034.332.332,0,0,0,.149-.443.329.329,0,0,0-.175-.162A.323.323,0,0,0-1316.076,835.885Zm.163-.194.036.013a.547.547,0,0,1,.292.269.547.547,0,0,1,.045.356.546.546,0,0,0-.045-.356.547.547,0,0,0-.291-.269Zm-.659.288a.57.57,0,0,0-.024.059.559.559,0,0,0-.028.141.554.554,0,0,1,.028-.141A.544.544,0,0,1-1316.572,835.979Z" transform="translate(1316.844 -835.447)" fill="#fff"/>
      </g>
      <g id="Grupo_23" data-name="Grupo 23" transform="translate(23.519 28.038)">
        <path id="Trazado_23" data-name="Trazado 23" d="M-1353.356,816.244l-.06,0a.838.838,0,0,1-.586-.284.856.856,0,0,1-.217-.625.864.864,0,0,1,.906-.81.807.807,0,0,1,.262.059.856.856,0,0,1,.544.856A.854.854,0,0,1-1353.356,816.244Zm-.041-.221h0Zm-.479-.256q.017.023.036.045a.624.624,0,0,0,.4.208.625.625,0,0,1-.4-.208Q-1353.859,815.79-1353.876,815.767Zm1.13-.217a.639.639,0,0,1-.28.38A.638.638,0,0,0-1352.746,815.55Zm-.614-.589a.426.426,0,0,0-.424.4.418.418,0,0,0,.107.305.409.409,0,0,0,.287.138h.034a.416.416,0,0,0,.412-.394.421.421,0,0,0-.268-.421.384.384,0,0,0-.124-.029Zm-.635.322a.6.6,0,0,0-.007.063c0,.01,0,.021,0,.031,0-.01,0-.021,0-.031A.6.6,0,0,1-1353.995,815.283Zm.667-.541h0a.6.6,0,0,1,.193.044.637.637,0,0,1,.406.565.636.636,0,0,0-.406-.565.594.594,0,0,0-.193-.044Z" transform="translate(1354.222 -814.522)" fill="#fff"/>
      </g>
      <g id="Grupo_24" data-name="Grupo 24" transform="translate(21.251 26.786)">
        <path id="Trazado_24" data-name="Trazado 24" d="M-1384.471,799.194h0a.879.879,0,0,1-.488-.148.9.9,0,0,1-.38-.568.882.882,0,0,1,.13-.671.891.891,0,0,1,.743-.4.88.88,0,0,1,.323.061.776.776,0,0,1,.172.089.9.9,0,0,1,.243,1.237A.889.889,0,0,1-1384.471,799.194Zm-.091-.226a.659.659,0,0,0,.091.006v0A.659.659,0,0,1-1384.562,798.968Zm.1-1.122a.455.455,0,0,0-.379.2.445.445,0,0,0-.066.339.459.459,0,0,0,.194.291.446.446,0,0,0,.246.074.455.455,0,0,0,.379-.205.458.458,0,0,0-.125-.63.364.364,0,0,0-.081-.041A.45.45,0,0,0-1384.466,797.846Zm.259-.167a.561.561,0,0,1,.113.059.679.679,0,0,1,.242.827.679.679,0,0,0-.242-.827A.549.549,0,0,0-1384.207,797.679Zm-.834.271a.658.658,0,0,0-.1.354A.659.659,0,0,1-1385.041,797.95Zm.574-.323a.672.672,0,0,0-.533.264.672.672,0,0,1,.533-.264.667.667,0,0,1,.206.033A.664.664,0,0,0-1384.466,797.626Z" transform="translate(1385.358 -797.407)" fill="#fff"/>
      </g>
      <g id="Grupo_25" data-name="Grupo 25" transform="translate(22.323 24.539)">
        <path id="Trazado_25" data-name="Trazado 25" d="M-1369.816,768.337h0a.822.822,0,0,1-.453-.137.829.829,0,0,1-.233-1.143.823.823,0,0,1,.686-.37.8.8,0,0,1,.295.056.784.784,0,0,1,.161.085.8.8,0,0,1,.349.515.822.822,0,0,1-.119.624A.82.82,0,0,1-1369.816,768.337Zm0-.219h0a.6.6,0,0,0,.4-.148A.6.6,0,0,1-1369.816,768.118Zm-.427-.177a.6.6,0,0,0,.094.077.605.605,0,0,0,.333.1.6.6,0,0,1-.333-.1A.594.594,0,0,1-1370.243,767.941Zm.427-.814a.386.386,0,0,0-.322.174.387.387,0,0,0,.109.533.386.386,0,0,0,.213.064.384.384,0,0,0,.322-.173.382.382,0,0,0,.056-.291.373.373,0,0,0-.164-.24.358.358,0,0,0-.077-.041A.37.37,0,0,0-1369.816,767.127Zm.315-.128.02.013a.59.59,0,0,1,.257.377.605.605,0,0,1,.007.206.608.608,0,0,0-.007-.206.588.588,0,0,0-.257-.377Zm-.71.057a.612.612,0,0,0-.109.124.6.6,0,0,0-.049.091.608.608,0,0,1,.049-.091A.612.612,0,0,1-1370.211,767.056Zm.4-.148a.587.587,0,0,1,.215.041l.024.01-.024-.01a.584.584,0,0,0-.215-.041h0Z" transform="translate(1370.637 -766.688)" fill="#fff"/>
      </g>
      <g id="Grupo_26" data-name="Grupo 26" transform="translate(24.63 25.245)">
        <path id="Trazado_26" data-name="Trazado 26" d="M-1338.043,778.211l-.064,0a.934.934,0,0,1-.869-.985.925.925,0,0,1,.985-.872.86.86,0,0,1,.281.061.931.931,0,0,1,.587.927A.926.926,0,0,1-1338.043,778.211Zm-.708-1.037c0,.021-.005.041-.007.062a.717.717,0,0,0,.514.727.717.717,0,0,1-.514-.727C-1338.757,777.216-1338.755,777.195-1338.751,777.174Zm.692-.386a.487.487,0,0,0-.481.461.5.5,0,0,0,.461.521h.036a.488.488,0,0,0,.484-.459.494.494,0,0,0-.311-.492.445.445,0,0,0-.146-.031Zm.36-.128a.713.713,0,0,1,.357.563A.712.712,0,0,0-1337.7,776.66Zm-.281-.088.043,0Z" transform="translate(1338.978 -776.349)" fill="#fff"/>
      </g>
      <g id="Grupo_27" data-name="Grupo 27" transform="translate(27.572 26.302)">
        <path id="Trazado_27" data-name="Trazado 27" d="M-1297.765,792.458a.816.816,0,0,1-.739-.462.826.826,0,0,1-.045-.632.823.823,0,0,1,.415-.481.839.839,0,0,1,.67-.03.813.813,0,0,1,.438.4.827.827,0,0,1,.045.634.822.822,0,0,1-.415.481A.816.816,0,0,1-1297.765,792.458Zm-.5-.491a.6.6,0,0,0,.5.271A.6.6,0,0,1-1298.269,791.967Zm.5-.733a.4.4,0,0,0-.176.041.387.387,0,0,0-.194.226.39.39,0,0,0,.022.3.384.384,0,0,0,.347.218.387.387,0,0,0,.175-.042.388.388,0,0,0,.2-.227.391.391,0,0,0-.021-.3.382.382,0,0,0-.206-.19A.386.386,0,0,0-1297.764,791.235Zm-.6.28a.6.6,0,0,0,.023.31A.6.6,0,0,1-1298.362,791.514Zm1.17-.094a.608.608,0,0,1,.025.321A.608.608,0,0,0-1297.192,791.42Zm-.375-.372.025.009a.6.6,0,0,1,.28.225.6.6,0,0,0-.28-.225Z" transform="translate(1298.591 -790.797)" fill="#fff"/>
      </g>
      <g id="Grupo_28" data-name="Grupo 28" transform="translate(22.97 22.144)">
        <path id="Trazado_28" data-name="Trazado 28" d="M-1361,735.482a.749.749,0,0,1-.421-.129.756.756,0,0,1-.326-.483.76.76,0,0,1,.111-.575.754.754,0,0,1,.632-.342.751.751,0,0,1,.276.052.638.638,0,0,1,.15.078.752.752,0,0,1,.323.481.762.762,0,0,1-.112.576A.756.756,0,0,1-1361,735.482Zm-.3-.31a.532.532,0,0,0,.3.09h0A.534.534,0,0,1-1361.3,735.172Zm.411.078a.539.539,0,0,1-.111.012A.539.539,0,0,0-1360.886,735.251Zm-.649-.437,0,.012a.539.539,0,0,0,.183.308.54.54,0,0,1-.183-.308Zm.531-.422a.32.32,0,0,0-.268.145.322.322,0,0,0-.047.244.321.321,0,0,0,.139.206.319.319,0,0,0,.179.056.321.321,0,0,0,.269-.145.325.325,0,0,0,.048-.245.322.322,0,0,0-.14-.205.236.236,0,0,0-.057-.031A.335.335,0,0,0-1361,734.392Zm.542.26a.54.54,0,0,1-.034.266A.54.54,0,0,0-1360.461,734.652Zm-.544-.48a.537.537,0,0,0-.449.244.541.541,0,0,0-.088.347.541.541,0,0,1,.088-.347A.537.537,0,0,1-1361.005,734.172Zm.344.121a.538.538,0,0,1,.186.285A.535.535,0,0,0-1360.661,734.294Zm-.129-.077a.414.414,0,0,1,.043.02A.414.414,0,0,0-1360.79,734.216Z" transform="translate(1361.763 -733.953)" fill="#fff"/>
      </g>
      <g id="Grupo_29" data-name="Grupo 29" transform="translate(25.245 22.276)">
        <path id="Trazado_29" data-name="Trazado 29" d="M-1329.531,737.777l-.062,0a.988.988,0,0,1-.687-.337,1.008,1.008,0,0,1-.252-.734,1.009,1.009,0,0,1,1.066-.947,1,1,0,0,1,.3.067,1.006,1.006,0,0,1,.639,1A1.008,1.008,0,0,1-1329.531,737.777Zm-.036-.22h.036a.789.789,0,0,0,.789-.743.788.788,0,0,0-.469-.773.8.8,0,0,1,.469.773.79.79,0,0,1-.791.743h-.035Zm.04-1.363a.572.572,0,0,0-.569.537.571.571,0,0,0,.143.416.556.556,0,0,0,.386.19h.034a.571.571,0,0,0,.573-.537.577.577,0,0,0-.361-.569.566.566,0,0,0-.172-.037Zm-.75.818a.78.78,0,0,0,.068.153A.78.78,0,0,1-1330.277,737.012Zm-.013-.445a.8.8,0,0,0-.02.106A.8.8,0,0,1-1330.291,736.568Zm.849-.588.064.01Z" transform="translate(1330.535 -735.755)" fill="#fff"/>
      </g>
      <g id="Grupo_30" data-name="Grupo 30" transform="translate(28.317 22.835)">
        <path id="Trazado_30" data-name="Trazado 30" d="M-1287.462,745.192a.9.9,0,0,1-.8-.5.906.906,0,0,1,.4-1.207.906.906,0,0,1,.723-.036.9.9,0,0,1,.478.439.889.889,0,0,1,.049.683.89.89,0,0,1-.45.522A.88.88,0,0,1-1287.462,745.192Zm-.032-.22h0Zm.653-.951a.672.672,0,0,1,.023.484.675.675,0,0,1-.341.395.666.666,0,0,1-.3.073.666.666,0,0,0,.3-.073.675.675,0,0,0,.341-.395A.672.672,0,0,0-1286.84,744.021Zm-.618-.189a.454.454,0,0,0-.205.049.466.466,0,0,0-.208.621.457.457,0,0,0,.41.252.451.451,0,0,0,.205-.049.457.457,0,0,0,.232-.268.453.453,0,0,0-.026-.349.459.459,0,0,0-.244-.226A.458.458,0,0,0-1287.458,743.832Zm-.631.718c.007.016.014.033.021.049a.678.678,0,0,0,.046.078.678.678,0,0,1-.046-.078C-1288.076,744.582-1288.083,744.566-1288.089,744.549Zm1.177-.655a.709.709,0,0,1,.046.074A.709.709,0,0,0-1286.912,743.894Zm-.822-.223-.028.013a.707.707,0,0,0-.105.066.7.7,0,0,1,.105-.066Zm.454-.035a.653.653,0,0,1,.063.021l.054.024c-.018-.009-.036-.017-.054-.024A.62.62,0,0,0-1287.279,743.636Z" transform="translate(1288.356 -743.394)" fill="#fff"/>
      </g>
      <g id="Grupo_31" data-name="Grupo 31" transform="translate(23.18 19.678)">
        <path id="Trazado_31" data-name="Trazado 31" d="M-1358.174,701.663a.7.7,0,0,1-.388-.117.71.71,0,0,1-.2-.987.706.706,0,0,1,.588-.316.7.7,0,0,1,.256.049.652.652,0,0,1,.139.072.684.684,0,0,1,.3.441.706.706,0,0,1-.105.54A.7.7,0,0,1-1358.174,701.663Zm.4-.433a.484.484,0,0,1-.4.214A.484.484,0,0,0-1357.771,701.23Zm-.4-.547a.269.269,0,0,0-.224.12.273.273,0,0,0,.078.378.266.266,0,0,0,.146.043.267.267,0,0,0,.225-.121.272.272,0,0,0,.042-.208.256.256,0,0,0-.113-.165.234.234,0,0,0-.054-.028A.265.265,0,0,0-1358.174,700.683Zm.483.183a.487.487,0,0,1-.052.319A.486.486,0,0,0-1357.691,700.866Zm-.2-.312a.471.471,0,0,1,.194.28A.468.468,0,0,0-1357.891,700.553Zm-.647.074a.511.511,0,0,0-.04.051A.511.511,0,0,1-1358.539,700.628Zm.365-.164a.485.485,0,0,1,.178.034.427.427,0,0,1,.07.033.426.426,0,0,0-.07-.033.557.557,0,0,0-.179-.034Z" transform="translate(1358.881 -700.244)" fill="#fff"/>
      </g>
      <g id="Grupo_32" data-name="Grupo 32" transform="translate(25.427 19.311)">
        <path id="Trazado_32" data-name="Trazado 32" d="M-1327.018,697.248l-.069,0a.989.989,0,0,1-.688-.336,1.007,1.007,0,0,1-.251-.735,1,1,0,0,1,1.067-.945,1,1,0,0,1,.3.066,1,1,0,0,1,.64,1A1,1,0,0,1-1327.018,697.248Zm.258-1.756.023.008a.785.785,0,0,1,.5.786.785.785,0,0,1-.78.742.784.784,0,0,0,.78-.742.784.784,0,0,0-.5-.786Zm-.76,1.361a.77.77,0,0,0,.364.165A.77.77,0,0,1-1327.521,696.853Zm.5-1.186a.565.565,0,0,0-.568.533.572.572,0,0,0,.142.419.557.557,0,0,0,.389.189l.042,0a.565.565,0,0,0,.562-.536.566.566,0,0,0-.36-.568.557.557,0,0,0-.17-.037Zm-.078-.216a.783.783,0,0,0-.707.736.79.79,0,0,0,.133.5.791.791,0,0,1-.133-.5A.783.783,0,0,1-1327.1,695.451Z" transform="translate(1328.029 -695.228)" fill="#fff"/>
      </g>
      <g id="Grupo_33" data-name="Grupo 33" transform="translate(22.946 17.217)">
        <path id="Trazado_33" data-name="Trazado 33" d="M-1361.434,667.924a.658.658,0,0,1-.365-.11.666.666,0,0,1-.187-.917.661.661,0,0,1,.55-.294.65.65,0,0,1,.237.044.584.584,0,0,1,.132.07.649.649,0,0,1,.278.418.651.651,0,0,1-.1.494A.657.657,0,0,1-1361.434,667.924Zm-.285-.324a.444.444,0,0,0,.041.03.44.44,0,0,0,.244.074.441.441,0,0,1-.244-.074A.456.456,0,0,1-1361.719,667.6Zm.608-.037a.44.44,0,0,1-.323.142A.439.439,0,0,0-1361.11,667.563Zm-.324-.521a.223.223,0,0,0-.186.1.224.224,0,0,0,.063.308.223.223,0,0,0,.124.038.223.223,0,0,0,.186-.1.214.214,0,0,0,.031-.163.221.221,0,0,0-.1-.142.177.177,0,0,0-.042-.022A.219.219,0,0,0-1361.434,667.042Zm.44.206a.429.429,0,0,1-.008.1A.429.429,0,0,0-1360.994,667.248Zm-.176-.337a.436.436,0,0,1,.16.233A.432.432,0,0,0-1361.17,666.911Zm-.08-.048.033.017Zm-.184-.041a.436.436,0,0,1,.136.022A.436.436,0,0,0-1361.434,666.823Z" transform="translate(1362.093 -666.603)" fill="#fff"/>
      </g>
      <g id="Grupo_34" data-name="Grupo 34" transform="translate(28.458 19.272)">
        <path id="Trazado_34" data-name="Trazado 34" d="M-1285.46,696.637a.978.978,0,0,1-.865-.538.98.98,0,0,1,.434-1.309.987.987,0,0,1,.786-.035.96.96,0,0,1,.516.471.973.973,0,0,1,.049.75.957.957,0,0,1-.489.556A.925.925,0,0,1-1285.46,696.637Zm.279-.275a.717.717,0,0,1-.279.056A.714.714,0,0,0-1285.181,696.362Zm.405-.382a.744.744,0,0,1-.321.341A.74.74,0,0,0-1284.776,695.98Zm-.683-.852a.527.527,0,0,0-.237.056.539.539,0,0,0-.239.719.537.537,0,0,0,.474.3.5.5,0,0,0,.235-.058.529.529,0,0,0,.272-.306.536.536,0,0,0-.027-.412.524.524,0,0,0-.282-.257A.534.534,0,0,0-1285.459,695.128Zm.293-.16a.74.74,0,0,1,.348.3A.739.739,0,0,0-1285.166,694.968Z" transform="translate(1286.427 -694.69)" fill="#fff"/>
      </g>
      <g id="Grupo_35" data-name="Grupo 35" transform="translate(25.17 16.436)">
        <path id="Trazado_35" data-name="Trazado 35" d="M-1330.62,657.786l-.065,0a.916.916,0,0,1-.636-.311.93.93,0,0,1-.232-.676.94.94,0,0,1,.985-.871.939.939,0,0,1,.276.061.93.93,0,0,1,.592.928A.928.928,0,0,1-1330.62,657.786Zm0-.219h0a.708.708,0,0,0,.7-.667c0-.023,0-.047,0-.069,0,.023,0,.046,0,.069A.709.709,0,0,1-1330.621,657.567Zm-.459-.163a.7.7,0,0,0,.345.154A.7.7,0,0,1-1331.08,657.4Zm.454-1.042a.5.5,0,0,0-.492.464.49.49,0,0,0,.123.356.485.485,0,0,0,.337.164h.037a.489.489,0,0,0,.484-.462.493.493,0,0,0-.314-.491.5.5,0,0,0-.146-.032Zm-.71.444v.005c0,.021,0,.042,0,.063,0-.021,0-.042,0-.063Zm.75-.662h0c.024,0,.048,0,.072.008q-.035-.006-.072-.008Z" transform="translate(1331.556 -655.923)" fill="#fff"/>
      </g>
      <g id="Grupo_36" data-name="Grupo 36" transform="translate(22.278 14.838)">
        <path id="Trazado_36" data-name="Trazado 36" d="M-1370.652,635.316a.61.61,0,0,1-.338-.1.62.62,0,0,1-.265-.4.611.611,0,0,1,.093-.461.6.6,0,0,1,.509-.274.6.6,0,0,1,.222.042.567.567,0,0,1,.114.058.627.627,0,0,1,.177.857A.61.61,0,0,1-1370.652,635.316Zm0-.8a.171.171,0,0,0-.144.078.175.175,0,0,0-.029.134.182.182,0,0,0,.078.117.172.172,0,0,0,.1.028.175.175,0,0,0,.147-.079.181.181,0,0,0-.051-.25.139.139,0,0,0-.027-.014A.186.186,0,0,0-1370.652,634.52Zm0-.219a.388.388,0,0,0-.327.176.393.393,0,0,0-.065.272.394.394,0,0,1,.065-.272A.388.388,0,0,1-1370.652,634.3Zm0,0a.393.393,0,0,1,.143.028.356.356,0,0,1,.071.036l.007,0-.007-.005a.35.35,0,0,0-.071-.036A.394.394,0,0,0-1370.65,634.3Z" transform="translate(1371.266 -634.081)" fill="#fff"/>
      </g>
      <g id="Grupo_37" data-name="Grupo 37" transform="translate(27.981 15.716)">
        <path id="Trazado_37" data-name="Trazado 37" d="M-1291.916,648.187h0a1.049,1.049,0,0,1-.945-.587,1.051,1.051,0,0,1-.055-.807,1.046,1.046,0,0,1,.531-.609,1.051,1.051,0,0,1,.849-.039,1.04,1.04,0,0,1,.559.512,1.062,1.062,0,0,1-.471,1.419A1.04,1.04,0,0,1-1291.916,648.187Zm-.765-.719.016.034a.832.832,0,0,0,.749.466.832.832,0,0,1-.749-.466Zm.764-.957a.591.591,0,0,0-.271.065.613.613,0,0,0-.313.357.613.613,0,0,0,.032.471.614.614,0,0,0,.554.344.609.609,0,0,0,.273-.065.622.622,0,0,0,.275-.831.6.6,0,0,0-.326-.3A.607.607,0,0,0-1291.917,646.511Zm.35-.142a.821.821,0,0,1,.4.385.838.838,0,0,1,.043.644.837.837,0,0,0-.043-.644A.82.82,0,0,0-1291.567,646.369Zm-.7,0-.022.011a.827.827,0,0,0-.388.4.83.83,0,0,1,.388-.4Z" transform="translate(1292.971 -646.073)" fill="#fff"/>
      </g>
      <g id="Grupo_38" data-name="Grupo 38" transform="translate(21.195 12.617)">
        <path id="Trazado_38" data-name="Trazado 38" d="M-1385.55,604.876a.569.569,0,0,1-.318-.1.582.582,0,0,1-.162-.8.571.571,0,0,1,.479-.258.56.56,0,0,1,.205.039.477.477,0,0,1,.115.061.579.579,0,0,1,.162.8A.58.58,0,0,1-1385.55,604.876Zm0-.937a.354.354,0,0,0-.3.16.36.36,0,0,0-.009.382.36.36,0,0,1,.009-.382.354.354,0,0,1,.391-.147A.342.342,0,0,0-1385.549,603.938Zm0,.219a.137.137,0,0,0-.115.062.141.141,0,0,0,.04.195.143.143,0,0,0,.192-.04.141.141,0,0,0-.042-.192.127.127,0,0,0-.02-.012A.145.145,0,0,0-1385.549,604.158Zm.139-.191a.275.275,0,0,1,.043.023A.272.272,0,0,0-1385.411,603.967Z" transform="translate(1386.124 -603.719)" fill="#fff"/>
      </g>
      <g id="Grupo_39" data-name="Grupo 39" transform="translate(24.403 13.659)">
        <path id="Trazado_39" data-name="Trazado 39" d="M-1341.233,619.68l-.058,0a.833.833,0,0,1-.587-.286.87.87,0,0,1-.215-.622.86.86,0,0,1,.908-.808.876.876,0,0,1,.258.056.856.856,0,0,1,.546.856A.856.856,0,0,1-1341.233,619.68Zm-.044-.221h0Zm.64-.42a.635.635,0,0,1-.6.421A.635.635,0,0,0-1340.637,619.039Zm-1.061.226a.618.618,0,0,0,.4.193A.619.619,0,0,1-1341.7,619.265Zm.458-.867a.422.422,0,0,0-.418.4.43.43,0,0,0,.107.307.4.4,0,0,0,.285.138h.033a.418.418,0,0,0,.415-.395.419.419,0,0,0-.265-.419.443.443,0,0,0-.129-.028Zm0-.22a.641.641,0,0,0-.635.6c0,.01,0,.021,0,.032,0-.011,0-.021,0-.032a.641.641,0,0,1,.636-.6h0Z" transform="translate(1342.095 -617.959)" fill="#fff"/>
      </g>
      <g id="Grupo_40" data-name="Grupo 40" transform="translate(19.737 10.624)">
        <path id="Trazado_40" data-name="Trazado 40" d="M-1405.608,577.549a.535.535,0,0,1-.3-.091.53.53,0,0,1-.23-.342.542.542,0,0,1,.081-.408.533.533,0,0,1,.447-.241.529.529,0,0,1,.2.037.508.508,0,0,1,.1.052.547.547,0,0,1,.232.348.533.533,0,0,1-.08.4A.536.536,0,0,1-1405.608,577.549Zm-.162-.264a.318.318,0,0,0,.162.044A.318.318,0,0,1-1405.769,577.286Zm.417-.082a.319.319,0,0,1-.255.127A.318.318,0,0,0-1405.352,577.2Zm-.572-.151c0,.007,0,.014,0,.021a.312.312,0,0,0,.136.2l.006,0-.006,0a.313.313,0,0,1-.135-.2C-1405.923,577.066-1405.924,577.059-1405.925,577.052Zm.638-.058a.315.315,0,0,1-.039.17A.313.313,0,0,0-1405.287,576.994Zm-.32-.088a.1.1,0,0,0-.083.046.1.1,0,0,0-.016.078.1.1,0,0,0,.042.062.1.1,0,0,0,.143-.027.1.1,0,0,0,.015-.075.1.1,0,0,0-.044-.067l-.016-.008A.106.106,0,0,0-1405.607,576.906Zm0-.219a.316.316,0,0,0-.265.144l-.008.013.008-.013a.316.316,0,0,1,.265-.144h0Zm.1.017.015.006a.291.291,0,0,1,.059.03l.015.01-.015-.01a.306.306,0,0,0-.058-.03Z" transform="translate(1406.146 -576.467)" fill="#fff"/>
      </g>
      <g id="Grupo_41" data-name="Grupo 41" transform="translate(17.946 8.916)">
        <path id="Trazado_41" data-name="Trazado 41" d="M-1430.229,554.139a.5.5,0,0,1-.28-.086.5.5,0,0,1-.215-.322.507.507,0,0,1,.077-.386.5.5,0,0,1,.419-.225.5.5,0,0,1,.182.034.567.567,0,0,1,.094.049.511.511,0,0,1,.223.33.5.5,0,0,1-.077.379A.5.5,0,0,1-1430.229,554.139Zm-.267-.4a.277.277,0,0,0,.108.135.285.285,0,0,0,.159.049.287.287,0,0,0,.241-.13.282.282,0,0,0,.049-.177.283.283,0,0,1-.049.177.289.289,0,0,1-.242.129h0a.283.283,0,0,1-.158-.048A.278.278,0,0,1-1430.5,553.736Zm.267-.176a.064.064,0,0,0-.054.029.072.072,0,0,0-.012.057.064.064,0,0,0,.027.042.072.072,0,0,0,.1-.02.064.064,0,0,0,.011-.049.069.069,0,0,0-.031-.045l-.016-.009A.066.066,0,0,0-1430.229,553.56Zm-.247-.077a.29.29,0,0,0-.039.172A.291.291,0,0,1-1430.475,553.483Zm.419-.085a.287.287,0,0,1,.107.154A.285.285,0,0,0-1430.057,553.4Zm-.172-.058a.281.281,0,0,0-.217.1A.283.283,0,0,1-1430.229,553.34Zm.041,0a.275.275,0,0,1,.062.016l.015.006-.015-.006A.275.275,0,0,0-1430.188,553.343Z" transform="translate(1430.734 -553.121)" fill="#fff"/>
      </g>
      <g id="Grupo_42" data-name="Grupo 42" transform="translate(23.147 11.064)">
        <path id="Trazado_42" data-name="Trazado 42" d="M-1358.537,584.082l-.053,0a.8.8,0,0,1-.743-.842.8.8,0,0,1,.842-.746.743.743,0,0,1,.238.052.794.794,0,0,1,.5.79A.792.792,0,0,1-1358.537,584.082Zm-.036-.221h0Zm.585-.408a.573.573,0,0,1-.548.409A.573.573,0,0,0-1357.989,583.453Zm-.554-.524a.359.359,0,0,0-.354.336.357.357,0,0,0,.334.377h.025a.354.354,0,0,0,.353-.334.361.361,0,0,0-.227-.355.325.325,0,0,0-.1-.023Zm.224-.175a.584.584,0,0,1,.353.539A.575.575,0,0,0-1358.318,582.755Zm-.162-.042a.543.543,0,0,1,.137.032A.534.534,0,0,0-1358.48,582.713Z" transform="translate(1359.334 -582.49)" fill="#fff"/>
      </g>
      <g id="Grupo_43" data-name="Grupo 43" transform="translate(26.901 12.27)">
        <path id="Trazado_43" data-name="Trazado 43" d="M-1306.643,601.271a1.147,1.147,0,0,1-1.029-.638,1.16,1.16,0,0,1,.516-1.545,1.164,1.164,0,0,1,.925-.042,1.144,1.144,0,0,1,.612.561,1.139,1.139,0,0,1,.06.878,1.152,1.152,0,0,1-.576.666A1.129,1.129,0,0,1-1306.643,601.271Zm0-1.863a.7.7,0,0,0-.314.073.718.718,0,0,0-.32.956.711.711,0,0,0,.638.4.7.7,0,0,0,.313-.074.715.715,0,0,0,.357-.413.7.7,0,0,0-.036-.541.708.708,0,0,0-.378-.348A.72.72,0,0,0-1306.647,599.408Zm-.889.973a.911.911,0,0,0,.06.154.949.949,0,0,0,.153.22.953.953,0,0,1-.153-.22A.916.916,0,0,1-1307.536,600.382Zm1.807-.411a.926.926,0,0,1-.037.445.955.955,0,0,1-.092.2.955.955,0,0,0,.092-.2A.926.926,0,0,0-1305.729,599.971Zm-.613-.731.033.012a.915.915,0,0,1,.307.2.915.915,0,0,0-.307-.2Zm-.692.034-.024.011a.937.937,0,0,0-.117.07.937.937,0,0,1,.117-.07Z" transform="translate(1307.791 -598.971)" fill="#fff"/>
      </g>
      <g id="Grupo_44" data-name="Grupo 44" transform="translate(15.876 7.551)">
        <path id="Trazado_44" data-name="Trazado 44" d="M-1458.667,535.415a.477.477,0,0,1-.263-.079.48.48,0,0,1-.208-.311.471.471,0,0,1,.075-.358.469.469,0,0,1,.4-.212.479.479,0,0,1,.173.032.53.53,0,0,1,.093.049.464.464,0,0,1,.2.3.478.478,0,0,1-.07.364A.475.475,0,0,1-1458.667,535.415Zm-.127-.253a.259.259,0,0,0,.127.034.258.258,0,0,0,.214-.116.26.26,0,0,1-.217.115h0A.254.254,0,0,1-1458.795,535.162Zm.282-.437a.251.251,0,0,1,.1.155.259.259,0,0,1-.036.195.259.259,0,0,0,.036-.195A.249.249,0,0,0-1458.513,534.725Zm-.154-.051a.253.253,0,0,0-.214.115.254.254,0,0,0-.042.195c0,.005,0,.011,0,.016s0-.01,0-.016a.255.255,0,0,1,.042-.194A.254.254,0,0,1-1458.667,534.674Zm0,.219a.038.038,0,0,0-.032.018.039.039,0,0,0-.009.031.044.044,0,0,0,.019.027.039.039,0,0,0,.056-.013.04.04,0,0,0,.006-.032.032.032,0,0,0-.014-.022l-.017-.009Zm.083-.206.007,0a.318.318,0,0,1,.051.026.325.325,0,0,0-.05-.026Z" transform="translate(1459.147 -534.455)" fill="#fff"/>
      </g>
      <g id="Grupo_45" data-name="Grupo 45" transform="translate(1.537 1.478)">
        <path id="Trazado_45" data-name="Trazado 45" d="M-1655.368,452.683a.61.61,0,0,1-.552-.348.615.615,0,0,1-.032-.472.616.616,0,0,1,.311-.36.623.623,0,0,1,.5-.02.6.6,0,0,1,.329.306.622.622,0,0,1-.273.827A.63.63,0,0,1-1655.368,452.683Zm-.383-.732a.4.4,0,0,0,.026.286.394.394,0,0,0,.356.226.4.4,0,0,1-.356-.226A.4.4,0,0,1-1655.75,451.952Zm.754-.037a.4.4,0,0,1-.188.505.408.408,0,0,1-.183.044.405.405,0,0,0,.183-.044A.4.4,0,0,0-1655,451.914Zm-.373-.035a.186.186,0,0,0-.081.018.178.178,0,0,0-.088.1.181.181,0,0,0,.009.139.18.18,0,0,0,.245.083.182.182,0,0,0,.078-.241.165.165,0,0,0-.094-.09A.188.188,0,0,0-1655.369,451.88Zm-.124-.2a.423.423,0,0,0-.052.021l-.021.011.021-.011A.449.449,0,0,1-1655.493,451.68Zm.126-.02a.405.405,0,0,1,.114.017A.4.4,0,0,0-1655.366,451.66Z" transform="translate(1655.984 -451.441)" fill="#fff"/>
      </g>
      <g id="Grupo_46" data-name="Grupo 46" transform="translate(21.448 8.73)">
        <path id="Trazado_46" data-name="Trazado 46" d="M-1381.925,552.06h-.042a.744.744,0,0,1-.688-.786.739.739,0,0,1,.779-.694.778.778,0,0,1,.218.048.74.74,0,0,1,.471.736A.744.744,0,0,1-1381.925,552.06Zm-.194-.261a.527.527,0,0,0,.166.041h0A.531.531,0,0,1-1382.119,551.8Zm.214-.782h-.009a.3.3,0,0,0-.3.283.3.3,0,0,0,.281.321h.013a.3.3,0,0,0,.3-.286.3.3,0,0,0-.192-.3A.342.342,0,0,0-1381.9,551.017Zm.5.311c0,.007,0,.015,0,.022s0,.024,0,.036c0-.012,0-.024,0-.036S-1381.4,551.335-1381.4,551.327Zm-.511-.53a.52.52,0,0,0-.517.442.521.521,0,0,1,.518-.442h0Zm.024,0a.573.573,0,0,1,.129.025.57.57,0,0,0-.128-.025Z" transform="translate(1382.656 -550.578)" fill="#fff"/>
      </g>
      <g id="Grupo_47" data-name="Grupo 47" transform="translate(8.503 3.195)">
        <path id="Trazado_47" data-name="Trazado 47" d="M-1559.827,475.962h-.035a.52.52,0,0,1-.361-.177.521.521,0,0,1-.13-.379.528.528,0,0,1,.56-.491.507.507,0,0,1,.151.032.529.529,0,0,1,.336.526A.527.527,0,0,1-1559.827,475.962Zm-.26-.361a.358.358,0,0,0,.028.037.3.3,0,0,0,.178.1.3.3,0,0,1-.178-.1A.365.365,0,0,1-1560.087,475.6Zm.255-.25a.088.088,0,0,0-.085.084.083.083,0,0,0,.021.059.087.087,0,0,0,.061.03h0a.088.088,0,0,0,.092-.08.085.085,0,0,0-.054-.086.094.094,0,0,0-.021,0Zm-.3.046q0,.011,0,.023c0,.008,0,.016,0,.024,0-.008,0-.016,0-.024S-1560.134,475.4-1560.132,475.4Zm.3-.265a.292.292,0,0,0-.055.005.3.3,0,0,1,.062-.005Z" transform="translate(1560.354 -474.912)" fill="#fff"/>
      </g>
      <g id="Grupo_48" data-name="Grupo 48" transform="translate(19.352 6.738)">
        <path id="Trazado_48" data-name="Trazado 48" d="M-1410.74,524.725l-.048,0a.67.67,0,0,1-.468-.228.69.69,0,0,1-.174-.5.687.687,0,0,1,.73-.643.649.649,0,0,1,.207.047.683.683,0,0,1,.429.681A.681.681,0,0,1-1410.74,524.725Zm.458-.641a.469.469,0,0,1-.455.421A.462.462,0,0,0-1410.282,524.085Zm-.778.3a.454.454,0,0,0,.285.121h0A.456.456,0,0,1-1411.06,524.384Zm.31-.591a.248.248,0,0,0-.244.233.249.249,0,0,0,.063.178.242.242,0,0,0,.169.082h.021a.247.247,0,0,0,.241-.232.244.244,0,0,0-.154-.244.234.234,0,0,0-.076-.017Zm.2-.175a.465.465,0,0,1,.266.419A.463.463,0,0,0-1410.546,523.617Zm-.162-.043a.447.447,0,0,1,.121.026A.44.44,0,0,0-1410.709,523.575Zm-.041,0a.448.448,0,0,0-.148.025.45.45,0,0,1,.148-.025h0Z" transform="translate(1411.431 -523.353)" fill="#fff"/>
      </g>
      <g id="Grupo_49" data-name="Grupo 49" transform="translate(25.35 9.14)">
        <path id="Trazado_49" data-name="Trazado 49" d="M-1327.946,558.485a1.141,1.141,0,0,1-1.027-.637,1.159,1.159,0,0,1,.52-1.545,1.148,1.148,0,0,1,.924-.041,1.135,1.135,0,0,1,.609.558,1.138,1.138,0,0,1,.064.873,1.146,1.146,0,0,1-.578.67A1.129,1.129,0,0,1-1327.946,558.485Zm-.116-.227a.932.932,0,0,0,.116.007h0A.932.932,0,0,1-1328.062,558.258Zm.5-.078a.914.914,0,0,1-.387.085A.914.914,0,0,0-1327.558,558.18Zm-.386-1.559a.691.691,0,0,0-.313.075.718.718,0,0,0-.324.957.706.706,0,0,0,.636.393.7.7,0,0,0,.316-.075.711.711,0,0,0,.358-.415.7.7,0,0,0-.04-.539.7.7,0,0,0-.376-.346A.7.7,0,0,0-1327.945,556.621Zm-.92.837a.926.926,0,0,0,.088.293.949.949,0,0,0,.109.17.946.946,0,0,1-.109-.17A.925.925,0,0,1-1328.865,557.458Zm1.793-.44a.921.921,0,0,1,.037.5A.917.917,0,0,0-1327.072,557.018Zm-.566-.564.03.011a.919.919,0,0,1,.483.433.917.917,0,0,0-.483-.433Zm-.7.036-.018.009a.928.928,0,0,0-.335.282.927.927,0,0,1,.335-.282Z" transform="translate(1329.091 -556.184)" fill="#fff"/>
      </g>
      <g id="Grupo_50" data-name="Grupo 50" transform="translate(11.424 3.343)">
        <path id="Trazado_50" data-name="Trazado 50" d="M-1519.7,478.061h-.04a.547.547,0,0,1-.38-.185.56.56,0,0,1-.14-.408.562.562,0,0,1,.6-.524.564.564,0,0,1,.163.036.555.555,0,0,1,.354.562A.556.556,0,0,1-1519.7,478.061Zm.328-.495a.337.337,0,0,1-.328.275A.336.336,0,0,0-1519.375,477.567Zm-.606.137.021.025a.333.333,0,0,0,.208.11.334.334,0,0,1-.208-.11Zm.27-.323a.122.122,0,0,0-.117.116.119.119,0,0,0,.03.087.117.117,0,0,0,.082.039h.012a.118.118,0,0,0,.115-.113.12.12,0,0,0-.073-.121.138.138,0,0,0-.035-.008Zm.138-.192a.341.341,0,0,1,.2.319A.336.336,0,0,0-1519.573,477.188Zm-.1-.026a.342.342,0,0,1,.068.013A.338.338,0,0,0-1519.675,477.162Z" transform="translate(1520.264 -476.941)" fill="#fff"/>
      </g>
      <g id="Grupo_51" data-name="Grupo 51" transform="translate(4.831 0.443)">
        <path id="Trazado_51" data-name="Trazado 51" d="M-1610.11,438.627h0a.655.655,0,0,1-.594-.371.654.654,0,0,1-.035-.5.658.658,0,0,1,.335-.386.671.671,0,0,1,.535-.025.647.647,0,0,1,.353.326.672.672,0,0,1-.3.89A.672.672,0,0,1-1610.11,438.627Zm0-.219a.444.444,0,0,0,.2-.046l.024-.013-.024.013a.449.449,0,0,1-.2.046Zm-.436-.533a.434.434,0,0,0,.038.284.439.439,0,0,0,.369.248.439.439,0,0,1-.369-.248A.434.434,0,0,1-1610.546,437.874Zm.436-.139a.211.211,0,0,0-.1.023.226.226,0,0,0-.117.133.22.22,0,0,0,.012.169.22.22,0,0,0,.2.127.232.232,0,0,0,.1-.023.23.23,0,0,0,.1-.3.215.215,0,0,0-.117-.109A.229.229,0,0,0-1610.11,437.735Zm-.172-.184-.023.011a.442.442,0,0,0-.213.224.444.444,0,0,1,.213-.224Zm.364.007a.43.43,0,0,1,.186.168A.429.429,0,0,0-1609.919,437.558Z" transform="translate(1610.773 -437.298)" fill="#fff"/>
      </g>
      <g id="Grupo_52" data-name="Grupo 52" transform="translate(16.932 5.143)">
        <path id="Trazado_52" data-name="Trazado 52" d="M-1444.018,502.831h-.032a.646.646,0,0,1-.6-.68.645.645,0,0,1,.68-.6.681.681,0,0,1,.187.04.647.647,0,0,1,.41.638A.649.649,0,0,1-1444.018,502.831Zm-.09-.231a.433.433,0,0,0,.071.011h0A.446.446,0,0,1-1444.109,502.6Zm.1-.613a.2.2,0,0,0-.207.187.207.207,0,0,0,.193.217h.006a.208.208,0,0,0,.206-.193.2.2,0,0,0-.13-.2.237.237,0,0,0-.06-.012Zm.12-.2.026.008.028.012-.028-.012Zm-.094-.017.054.007A.467.467,0,0,0-1443.984,501.769Z" transform="translate(1444.654 -501.549)" fill="#fff"/>
      </g>
      <g id="Grupo_53" data-name="Grupo 53" transform="translate(14.263 4)">
        <path id="Trazado_53" data-name="Trazado 53" d="M-1480.7,487.119h-.031a.6.6,0,0,1-.559-.632.6.6,0,0,1,.632-.563.588.588,0,0,1,.177.037.6.6,0,0,1,.38.6A.605.605,0,0,1-1480.7,487.119Zm-.26-.33a.382.382,0,0,0,.242.11h0A.386.386,0,0,1-1480.962,486.789Zm.262-.429a.156.156,0,0,0-.156.153.16.16,0,0,0,.15.167h.007a.162.162,0,0,0,.161-.152.16.16,0,0,0-.1-.158.165.165,0,0,0-.045-.009Zm.38.15c0,.01,0,.021,0,.031l0,.018,0-.018C-1480.32,486.531-1480.32,486.52-1480.32,486.51Zm-.343-.368a.377.377,0,0,1,.1.022l.039.018-.039-.018A.378.378,0,0,0-1480.662,486.142Z" transform="translate(1481.293 -485.921)" fill="#fff"/>
      </g>
      <g id="Grupo_54" data-name="Grupo 54" transform="translate(23.374 6.423)">
        <path id="Trazado_54" data-name="Trazado 54" d="M-1355.155,521.154h0a1.05,1.05,0,0,1-.945-.586,1.064,1.064,0,0,1,.473-1.417,1.061,1.061,0,0,1,.854-.04,1.048,1.048,0,0,1,.56.513,1.069,1.069,0,0,1-.472,1.42A1.054,1.054,0,0,1-1355.155,521.154Zm-.111-.227a.837.837,0,0,0,.111.007v0A.838.838,0,0,1-1355.266,520.928Zm.111-1.45a.609.609,0,0,0-.276.066.623.623,0,0,0-.277.83.615.615,0,0,0,.553.342.619.619,0,0,0,.276-.065.626.626,0,0,0,.275-.832.61.61,0,0,0-.326-.3A.612.612,0,0,0-1355.155,519.477Zm-.8.856a.843.843,0,0,0,.053.137.857.857,0,0,0,.1.153.857.857,0,0,1-.1-.153A.845.845,0,0,1-1355.957,520.333Z" transform="translate(1356.208 -519.04)" fill="#fff"/>
      </g>
      <g id="Grupo_55" data-name="Grupo 55" transform="translate(8.24)">
        <path id="Trazado_55" data-name="Trazado 55" d="M-1563.254,432.665a.7.7,0,0,1-.638-.4.705.705,0,0,1-.037-.544.7.7,0,0,1,.358-.411.717.717,0,0,1,.574-.026.7.7,0,0,1,.378.349.705.705,0,0,1,.039.543.707.707,0,0,1-.359.414A.7.7,0,0,1-1563.254,432.665Zm-.436-.485a.488.488,0,0,0,.436.265A.489.489,0,0,1-1563.691,432.18Zm.642.22a.483.483,0,0,1-.206.046A.483.483,0,0,0-1563.049,432.4Zm.236-.231a.486.486,0,0,1-.148.178A.485.485,0,0,0-1562.812,432.169Zm-.443-.494a.269.269,0,0,0-.122.029.27.27,0,0,0-.137.158.271.271,0,0,0,.014.209.272.272,0,0,0,.246.155.269.269,0,0,0,.121-.028.271.271,0,0,0,.138-.159.272.272,0,0,0-.016-.21.265.265,0,0,0-.144-.135A.273.273,0,0,0-1563.256,431.675Zm-.482.176a.485.485,0,0,0,.036.306A.485.485,0,0,1-1563.738,431.851Zm.648-.367.013.005a.482.482,0,0,1,.261.242.489.489,0,0,1,.041.328.488.488,0,0,0-.041-.328.481.481,0,0,0-.261-.242Zm-.435.051a.48.48,0,0,0-.129.122A.482.482,0,0,1-1563.524,431.536Z" transform="translate(1563.967 -431.237)" fill="#fff"/>
      </g>
      <g id="Grupo_56" data-name="Grupo 56" transform="translate(20.932 4.098)">
        <path id="Trazado_56" data-name="Trazado 56" d="M-1388.762,489.2a.972.972,0,0,1-.868-.541.966.966,0,0,1-.053-.742.964.964,0,0,1,.488-.563.979.979,0,0,1,.783-.038.991.991,0,0,1,.519.474.981.981,0,0,1-.439,1.307A.947.947,0,0,1-1388.762,489.2Zm-.61-.535a.753.753,0,0,0,.61.316h0A.753.753,0,0,1-1389.372,488.666Zm.914.25a.732.732,0,0,1-.3.065A.731.731,0,0,0-1388.458,488.916Zm-.3-1.226a.527.527,0,0,0-.239.057.53.53,0,0,0-.269.309.53.53,0,0,0,.03.408.533.533,0,0,0,.476.3.516.516,0,0,0,.235-.056.539.539,0,0,0,.243-.719.548.548,0,0,0-.286-.262A.53.53,0,0,0-1388.761,487.69Zm-.366-.124a.747.747,0,0,0-.349.421.749.749,0,0,0,0,.485.748.748,0,0,1,0-.485A.746.746,0,0,1-1389.126,487.566Zm.6-.057.032.012.042.018-.042-.018Z" transform="translate(1389.733 -487.253)" fill="#fff"/>
      </g>
      <g id="Grupo_57" data-name="Grupo 57" transform="translate(11.66 0.16)">
        <path id="Trazado_57" data-name="Trazado 57" d="M-1516.251,434.966h0a.77.77,0,0,1-.689-.428.775.775,0,0,1,.344-1.031.781.781,0,0,1,.618-.026.787.787,0,0,1,.411.369.781.781,0,0,1-.344,1.037A.765.765,0,0,1-1516.251,434.966Zm-.539-.662a.547.547,0,0,0,.047.137.549.549,0,0,0,.492.306v0a.55.55,0,0,1-.492-.306A.547.547,0,0,1-1516.79,434.3Zm.533-.437a.33.33,0,0,0-.145.033.333.333,0,0,0-.145.444.33.33,0,0,0,.3.183.33.33,0,0,0,.146-.034.337.337,0,0,0,.148-.446.343.343,0,0,0-.179-.158A.335.335,0,0,0-1516.257,433.866Z" transform="translate(1517.019 -433.428)" fill="#fff"/>
      </g>
      <g id="Grupo_58" data-name="Grupo 58" transform="translate(18.107 2.244)">
        <path id="Trazado_58" data-name="Trazado 58" d="M-1427.628,463.712a.886.886,0,0,1-.8-.5.9.9,0,0,1-.047-.69.883.883,0,0,1,.45-.514.9.9,0,0,1,.722-.032.887.887,0,0,1,.476.438.9.9,0,0,1-.4,1.2A.891.891,0,0,1-1427.628,463.712Zm-.545-.5a.668.668,0,0,0,.545.277A.669.669,0,0,1-1428.173,463.215Zm.545-.861a.45.45,0,0,0-.2.048.45.45,0,0,0-.23.261.46.46,0,0,0,.024.354.453.453,0,0,0,.409.255.457.457,0,0,0,.2-.048.462.462,0,0,0,.206-.616.452.452,0,0,0-.243-.223A.455.455,0,0,0-1427.628,462.354Zm-.648.264a.675.675,0,0,0-.017.318A.677.677,0,0,1-1428.276,462.619Zm1.274-.061a.665.665,0,0,1,.044.163A.665.665,0,0,0-1427,462.557Zm-.934-.347a.664.664,0,0,0-.319.349A.665.665,0,0,1-1427.936,462.21Zm.584-.016a.667.667,0,0,1,.311.283A.668.668,0,0,0-1427.352,462.194Z" transform="translate(1428.523 -461.917)" fill="#fff"/>
      </g>
      <g id="Grupo_59" data-name="Grupo 59" transform="translate(14.983 0.916)">
        <path id="Trazado_59" data-name="Trazado 59" d="M-1470.579,445.424h0a.836.836,0,0,1-.743-.461.83.83,0,0,1-.043-.637.817.817,0,0,1,.415-.476.833.833,0,0,1,.67-.032.824.824,0,0,1,.441.4.839.839,0,0,1-.372,1.113A.806.806,0,0,1-1470.579,445.424Zm-.584-.651a.6.6,0,0,0,.037.093.615.615,0,0,0,.547.339v0a.615.615,0,0,1-.547-.339A.619.619,0,0,1-1471.163,444.772Zm.583-.572a.387.387,0,0,0-.175.042.385.385,0,0,0-.2.224.392.392,0,0,0,.02.3.4.4,0,0,0,.351.218.373.373,0,0,0,.171-.041.4.4,0,0,0,.178-.527.387.387,0,0,0-.207-.19A.389.389,0,0,0-1470.58,444.2Zm.214-.18.008,0a.6.6,0,0,1,.324.3.562.562,0,0,1,.023.054.592.592,0,0,0-.023-.054.605.605,0,0,0-.324-.3Zm-.522.045a.6.6,0,0,0-.222.224A.6.6,0,0,1-1470.888,444.065Z" transform="translate(1471.409 -443.763)" fill="#fff"/>
      </g>
    </g>
    <path id="Trazado_60" data-name="Trazado 60" d="M-1585.582,941.282a.31.31,0,0,0-.324.287h0a.308.308,0,0,0,.286.326h0a.314.314,0,0,0,.326-.29h0a.312.312,0,0,0-.2-.3h0a.305.305,0,0,0-.089-.02" transform="translate(1592.549 -903.971)" fill="#fff"/>
    <path id="Trazado_61" data-name="Trazado 61" d="M-1545.463,943.3a.339.339,0,0,0-.357.318h0a.338.338,0,0,0,.315.363h0a.339.339,0,0,0,.361-.321h0a.337.337,0,0,0-.215-.338h0a.387.387,0,0,0-.1-.022" transform="translate(1555.383 -905.843)" fill="#fff"/>
    <path id="Trazado_62" data-name="Trazado 62" d="M-1451.551,965.241a.362.362,0,0,0-.163.485h0a.359.359,0,0,0,.481.157h0a.358.358,0,0,0,.164-.481h0a.38.38,0,0,0-.193-.177h0a.352.352,0,0,0-.29.016" transform="translate(1468.166 -926.142)" fill="#fff"/>
    <path id="Trazado_63" data-name="Trazado 63" d="M-1614.432,898.577a.325.325,0,0,0,.089.448h0a.326.326,0,0,0,.446-.092h0a.325.325,0,0,0-.091-.446h0a.694.694,0,0,0-.064-.033h0a.317.317,0,0,0-.38.123" transform="translate(1619.046 -864.257)" fill="#fff"/>
    <path id="Trazado_64" data-name="Trazado 64" d="M-1645.659,885.214a.3.3,0,0,0,.083.405h0a.289.289,0,0,0,.4-.081h0a.29.29,0,0,0-.082-.4h0a.33.33,0,0,0-.057-.029h0a.289.289,0,0,0-.343.108" transform="translate(1647.992 -851.886)" fill="#fff"/>
    <path id="Trazado_65" data-name="Trazado 65" d="M-1505.581,938.18a.383.383,0,0,0-.4.356h0a.379.379,0,0,0,.353.405h0a.38.38,0,0,0,.4-.357h0a.378.378,0,0,0-.239-.379h0a.4.4,0,0,0-.111-.025" transform="translate(1518.446 -901.096)" fill="#fff"/>
    <path id="Trazado_66" data-name="Trazado 66" d="M-1581.347,906.195a.354.354,0,0,0,.1.493h0a.355.355,0,0,0,.494-.1h0a.356.356,0,0,0-.1-.5h0a.27.27,0,0,0-.067-.034h0a.352.352,0,0,0-.424.135" transform="translate(1588.377 -871.303)" fill="#fff"/>
    <path id="Trazado_67" data-name="Trazado 67" d="M-1674.041,866.521a.259.259,0,0,0,.072.36h0a.262.262,0,0,0,.361-.072h0a.264.264,0,0,0-.073-.363h0a.221.221,0,0,0-.047-.025h0a.26.26,0,0,0-.312.1" transform="translate(1674.303 -834.57)" fill="#fff"/>
    <path id="Trazado_68" data-name="Trazado 68" d="M-1547.439,907.774a.4.4,0,0,0,.113.554h0a.394.394,0,0,0,.547-.113h0a.4.4,0,0,0-.11-.549h0a.429.429,0,0,0-.076-.04h0a.4.4,0,0,0-.474.148" transform="translate(1556.943 -872.752)" fill="#fff"/>
    <path id="Trazado_69" data-name="Trazado 69" d="M-1467.184,926.1a.426.426,0,0,0-.448.393h0a.422.422,0,0,0,.4.446h0a.418.418,0,0,0,.444-.393h0a.422.422,0,0,0-.269-.419h0a.412.412,0,0,0-.123-.028" transform="translate(1482.891 -889.901)" fill="#fff"/>
    <path id="Trazado_70" data-name="Trazado 70" d="M-1409.3,943.4a.4.4,0,0,0-.178.538h0a.4.4,0,0,0,.535.18h0a.4.4,0,0,0,.182-.538h0a.408.408,0,0,0-.213-.194h0a.407.407,0,0,0-.326.015" transform="translate(1429.006 -905.895)" fill="#fff"/>
    <path id="Trazado_71" data-name="Trazado 71" d="M-1513.728,903.293a.44.44,0,0,0,.124.611h0a.438.438,0,0,0,.611-.126h0a.446.446,0,0,0-.125-.613h0a.417.417,0,0,0-.084-.042h0a.435.435,0,0,0-.525.169" transform="translate(1525.696 -868.577)" fill="#fff"/>
    <path id="Trazado_72" data-name="Trazado 72" d="M-1481.283,892.857a.491.491,0,0,0,.137.682h0a.482.482,0,0,0,.676-.14h0a.487.487,0,0,0-.138-.677h0a.427.427,0,0,0-.1-.051h0a.485.485,0,0,0-.58.185" transform="translate(1495.623 -858.887)" fill="#fff"/>
    <path id="Trazado_73" data-name="Trazado 73" d="M-1431.4,907.4a.463.463,0,0,0-.493.437h0a.467.467,0,0,0,.436.5h0a.468.468,0,0,0,.494-.441h0a.467.467,0,0,0-.294-.463h0a.545.545,0,0,0-.142-.03" transform="translate(1449.752 -872.565)" fill="#fff"/>
    <path id="Trazado_74" data-name="Trazado 74" d="M-1371.469,914.4a.442.442,0,0,0-.2.593h0a.442.442,0,0,0,.6.2h0a.443.443,0,0,0,.2-.6h0a.432.432,0,0,0-.234-.217h0a.44.44,0,0,0-.36.017" transform="translate(1393.96 -879.013)" fill="#fff"/>
    <path id="Trazado_75" data-name="Trazado 75" d="M-1451.123,876.752a.545.545,0,0,0,.151.755h0a.545.545,0,0,0,.755-.154h0a.55.55,0,0,0-.153-.755h0a.634.634,0,0,0-.1-.053h0a.543.543,0,0,0-.651.208" transform="translate(1467.668 -843.935)" fill="#fff"/>
    <path id="Trazado_76" data-name="Trazado 76" d="M-1399.428,882.528a.521.521,0,0,0-.552.484h0a.526.526,0,0,0,.488.554h0a.517.517,0,0,0,.548-.488h0a.517.517,0,0,0-.327-.515h0a.53.53,0,0,0-.157-.036" transform="translate(1420.167 -849.515)" fill="#fff"/>
    <path id="Trazado_77" data-name="Trazado 77" d="M-1424.152,855.418a.607.607,0,0,0,.169.838h0a.6.6,0,0,0,.837-.169h0a.607.607,0,0,0-.172-.839h0a.573.573,0,0,0-.116-.062h0a.6.6,0,0,0-.717.232" transform="translate(1442.67 -824.136)" fill="#fff"/>
    <path id="Trazado_78" data-name="Trazado 78" d="M-1339.2,879.067a.494.494,0,0,0-.219.665h0a.489.489,0,0,0,.661.22h0a.492.492,0,0,0,.219-.663h0a.49.49,0,0,0-.261-.242h0a.5.5,0,0,0-.4.019" transform="translate(1364.065 -846.26)" fill="#fff"/>
    <path id="Trazado_79" data-name="Trazado 79" d="M-1372.171,852.271a.578.578,0,0,0-.611.541h0a.582.582,0,0,0,.543.613h0a.58.58,0,0,0,.607-.54h0a.579.579,0,0,0-.367-.576h0a.518.518,0,0,0-.172-.038" transform="translate(1394.95 -821.471)" fill="#fff"/>
    <path id="Trazado_80" data-name="Trazado 80" d="M-1401.313,829.483a.672.672,0,0,0,.187.932h0a.67.67,0,0,0,.931-.188h0a.678.678,0,0,0-.189-.934h0a.632.632,0,0,0-.127-.068h0a.671.671,0,0,0-.8.258" transform="translate(1421.507 -800.07)" fill="#fff"/>
    <path id="Trazado_81" data-name="Trazado 81" d="M-1313.537,838.491a.551.551,0,0,0-.246.737h0a.55.55,0,0,0,.734.249h0a.55.55,0,0,0,.247-.737h0a.545.545,0,0,0-.291-.269h0a.55.55,0,0,0-.444.02" transform="translate(1340.301 -808.646)" fill="#fff"/>
    <path id="Trazado_82" data-name="Trazado 82" d="M-1350.543,817.522a.645.645,0,0,0-.677.6h0a.638.638,0,0,0,.6.677h0a.637.637,0,0,0,.675-.6h0a.641.641,0,0,0-.407-.639h0a.589.589,0,0,0-.192-.043" transform="translate(1374.959 -789.264)" fill="#fff"/>
    <path id="Trazado_83" data-name="Trazado 83" d="M-1382.243,800.71a.678.678,0,0,0,.189.934h0a.668.668,0,0,0,.928-.192h0a.677.677,0,0,0-.185-.934h0a.584.584,0,0,0-.128-.065h0a.671.671,0,0,0-.8.256" transform="translate(1403.824 -773.402)" fill="#fff"/>
    <path id="Trazado_84" data-name="Trazado 84" d="M-1367.542,769.958a.608.608,0,0,0,.17.839h0a.6.6,0,0,0,.837-.171h0a.6.6,0,0,0-.172-.837h0a.559.559,0,0,0-.117-.062h0a.6.6,0,0,0-.718.23" transform="translate(1390.183 -744.929)" fill="#fff"/>
    <path id="Trazado_85" data-name="Trazado 85" d="M-1335.225,779.35a.706.706,0,0,0-.751.665h0a.713.713,0,0,0,.666.754h0a.706.706,0,0,0,.751-.664h0a.715.715,0,0,0-.45-.71h0a.654.654,0,0,0-.216-.046" transform="translate(1360.825 -753.883)" fill="#fff"/>
    <path id="Trazado_86" data-name="Trazado 86" d="M-1295.249,793.847a.612.612,0,0,0-.272.82h0a.6.6,0,0,0,.814.275h0a.614.614,0,0,0,.272-.821h0a.6.6,0,0,0-.321-.3h0a.61.61,0,0,0-.494.022" transform="translate(1323.376 -767.263)" fill="#fff"/>
    <path id="Trazado_87" data-name="Trazado 87" d="M-1358.671,737.2a.544.544,0,0,0,.155.755h0a.539.539,0,0,0,.751-.152h0a.543.543,0,0,0-.154-.755h0a.446.446,0,0,0-.106-.055h0a.537.537,0,0,0-.646.207" transform="translate(1381.949 -714.589)" fill="#fff"/>
    <path id="Trazado_88" data-name="Trazado 88" d="M-1326.7,738.758a.79.79,0,0,0-.834.742h0a.789.789,0,0,0,.735.839h0a.788.788,0,0,0,.838-.742h0a.792.792,0,0,0-.5-.786h0a.785.785,0,0,0-.238-.052" transform="translate(1352.998 -716.261)" fill="#fff"/>
    <path id="Trazado_89" data-name="Trazado 89" d="M-1284.976,746.451a.688.688,0,0,0-.307.912h0a.676.676,0,0,0,.91.3h0a.679.679,0,0,0,.3-.911h0a.675.675,0,0,0-.359-.331h0a.677.677,0,0,0-.546.027" transform="translate(1313.888 -723.326)" fill="#fff"/>
    <path id="Trazado_90" data-name="Trazado 90" d="M-1355.789,703.461a.492.492,0,0,0,.138.683h0a.487.487,0,0,0,.675-.139h0a.485.485,0,0,0-.136-.678h0a.44.44,0,0,0-.095-.049h0a.487.487,0,0,0-.582.184" transform="translate(1379.27 -683.346)" fill="#fff"/>
    <path id="Trazado_91" data-name="Trazado 91" d="M-1324.192,698.23a.784.784,0,0,0-.836.74h0a.786.786,0,0,0,.736.838h0a.783.783,0,0,0,.835-.741h0a.788.788,0,0,0-.5-.785h0a.784.784,0,0,0-.236-.052" transform="translate(1350.675 -678.698)" fill="#fff"/>
    <path id="Trazado_92" data-name="Trazado 92" d="M-1359.024,669.8a.445.445,0,0,0,.124.614h0a.44.44,0,0,0,.611-.124h0a.442.442,0,0,0-.126-.611h0a.377.377,0,0,0-.084-.044h0a.443.443,0,0,0-.525.165" transform="translate(1382.261 -652.166)" fill="#fff"/>
    <path id="Trazado_93" data-name="Trazado 93" d="M-1283.019,697.745a.758.758,0,0,0-.337,1.014h0a.743.743,0,0,0,1.006.334h0a.753.753,0,0,0,.34-1.01h0a.745.745,0,0,0-.4-.365h0a.749.749,0,0,0-.608.027" transform="translate(1312.111 -678.177)" fill="#fff"/>
    <path id="Trazado_94" data-name="Trazado 94" d="M-1327.8,658.921a.716.716,0,0,0-.754.666h0a.711.711,0,0,0,.665.755h0a.708.708,0,0,0,.752-.666h0a.714.714,0,0,0-.453-.709h0a.722.722,0,0,0-.21-.046" transform="translate(1353.944 -642.264)" fill="#fff"/>
    <path id="Trazado_95" data-name="Trazado 95" d="M-1368.2,637.259a.4.4,0,0,0,.111.553h0a.394.394,0,0,0,.547-.113h0a.4.4,0,0,0-.112-.552h0a.373.373,0,0,0-.077-.039h0a.39.39,0,0,0-.469.151" transform="translate(1390.76 -622.024)" fill="#fff"/>
    <path id="Trazado_96" data-name="Trazado 96" d="M-1289.5,649.141a.837.837,0,0,0-.378,1.122h0a.835.835,0,0,0,1.12.378h0a.842.842,0,0,0,.373-1.126h0a.822.822,0,0,0-.442-.4h0a.817.817,0,0,0-.673.031" transform="translate(1318.167 -633.118)" fill="#fff"/>
    <path id="Trazado_97" data-name="Trazado 97" d="M-1383.071,606.88a.36.36,0,0,0,.1.5h0a.357.357,0,0,0,.5-.1h0a.363.363,0,0,0-.1-.5h0a.3.3,0,0,0-.071-.037h0a.354.354,0,0,0-.423.137" transform="translate(1404.543 -593.882)" fill="#fff"/>
    <path id="Trazado_98" data-name="Trazado 98" d="M-1338.418,620.961a.642.642,0,0,0-.676.6h0a.639.639,0,0,0,.6.678h0a.636.636,0,0,0,.676-.6h0a.638.638,0,0,0-.4-.637h0a.661.661,0,0,0-.194-.042" transform="translate(1363.716 -607.081)" fill="#fff"/>
    <path id="Trazado_99" data-name="Trazado 99" d="M-1403.094,579.612a.32.32,0,0,0,.089.444h0a.32.32,0,0,0,.445-.091h0a.324.324,0,0,0-.092-.446h0a.3.3,0,0,0-.061-.031h0a.316.316,0,0,0-.382.123" transform="translate(1423.103 -568.624)" fill="#fff"/>
    <path id="Trazado_100" data-name="Trazado 100" d="M-1427.683,556.249a.29.29,0,0,0,.079.4h0a.286.286,0,0,0,.4-.083h0a.286.286,0,0,0-.082-.4h0a.321.321,0,0,0-.057-.03h0a.284.284,0,0,0-.34.109" transform="translate(1445.896 -546.986)" fill="#fff"/>
    <path id="Trazado_101" data-name="Trazado 101" d="M-1355.724,585.493a.578.578,0,0,0-.61.539h0a.575.575,0,0,0,.539.611h0a.573.573,0,0,0,.609-.54h0a.579.579,0,0,0-.366-.572h0a.539.539,0,0,0-.173-.038" transform="translate(1379.7 -574.208)" fill="#fff"/>
    <path id="Trazado_102" data-name="Trazado 102" d="M-1304.292,602.048a.936.936,0,0,0-.419,1.25h0a.929.929,0,0,0,1.244.42h0a.935.935,0,0,0,.418-1.249h0a.924.924,0,0,0-.494-.454h0a.93.93,0,0,0-.748.033" transform="translate(1331.927 -589.464)" fill="#fff"/>
    <path id="Trazado_103" data-name="Trazado 103" d="M-1456.1,537.573a.257.257,0,0,0,.073.361h0a.257.257,0,0,0,.359-.076h0a.258.258,0,0,0-.072-.359h0a.287.287,0,0,0-.05-.026h0a.257.257,0,0,0-.31.1" transform="translate(1472.24 -529.685)" fill="#fff"/>
    <path id="Trazado_104" data-name="Trazado 104" d="M-1652.757,454.48a.4.4,0,0,0-.179.539h0a.4.4,0,0,0,.537.182h0a.4.4,0,0,0,.176-.538h0a.38.38,0,0,0-.211-.2h0a.4.4,0,0,0-.323.012" transform="translate(1654.734 -452.743)" fill="#fff"/>
    <path id="Trazado_105" data-name="Trazado 105" d="M-1379.106,553.579a.522.522,0,0,0-.55.49h0a.52.52,0,0,0,.482.552h0a.522.522,0,0,0,.55-.49h0a.523.523,0,0,0-.331-.518h0a.555.555,0,0,0-.151-.034" transform="translate(1401.324 -544.629)" fill="#fff"/>
    <path id="Trazado_106" data-name="Trazado 106" d="M-1557.028,477.912a.307.307,0,0,0-.325.286h0a.306.306,0,0,0,.288.324h0a.305.305,0,0,0,.323-.284h0a.306.306,0,0,0-.192-.306h0a.31.31,0,0,0-.094-.02" transform="translate(1566.076 -474.497)" fill="#fff"/>
    <path id="Trazado_107" data-name="Trazado 107" d="M-1407.934,526.355a.466.466,0,0,0-.5.436h0a.466.466,0,0,0,.439.495h0a.465.465,0,0,0,.492-.437h0a.461.461,0,0,0-.293-.462h0a.445.445,0,0,0-.142-.032" transform="translate(1428.001 -519.396)" fill="#fff"/>
    <path id="Trazado_108" data-name="Trazado 108" d="M-1325.583,559.259a.936.936,0,0,0-.422,1.25h0a.928.928,0,0,0,1.246.417h0a.931.931,0,0,0,.416-1.25h0a.916.916,0,0,0-.493-.451h0a.913.913,0,0,0-.747.034" transform="translate(1351.668 -549.804)" fill="#fff"/>
    <path id="Trazado_109" data-name="Trazado 109" d="M-1516.9,479.941a.339.339,0,0,0-.361.319h0a.338.338,0,0,0,.318.361h0a.337.337,0,0,0,.358-.318h0a.337.337,0,0,0-.212-.34h0a.358.358,0,0,0-.1-.023" transform="translate(1528.907 -476.377)" fill="#fff"/>
    <path id="Trazado_110" data-name="Trazado 110" d="M-1607.52,440.324a.444.444,0,0,0-.2.6h0a.443.443,0,0,0,.594.2h0a.451.451,0,0,0,.2-.6h0a.43.43,0,0,0-.235-.217h0a.437.437,0,0,0-.359.017" transform="translate(1612.817 -439.615)" fill="#fff"/>
    <path id="Trazado_111" data-name="Trazado 111" d="M-1441.2,504.55a.426.426,0,0,0-.449.392h0a.429.429,0,0,0,.4.451h0a.426.426,0,0,0,.445-.4h0a.425.425,0,0,0-.267-.42h0a.455.455,0,0,0-.124-.027" transform="translate(1458.804 -499.187)" fill="#fff"/>
    <path id="Trazado_112" data-name="Trazado 112" d="M-1477.893,488.92a.377.377,0,0,0-.4.357h0a.379.379,0,0,0,.353.4h0a.382.382,0,0,0,.4-.356h0a.38.38,0,0,0-.239-.378h0a.379.379,0,0,0-.115-.024" transform="translate(1492.775 -484.699)" fill="#fff"/>
    <path id="Trazado_113" data-name="Trazado 113" d="M-1352.758,522.109a.841.841,0,0,0-.375,1.123h0a.836.836,0,0,0,1.122.378h0a.846.846,0,0,0,.375-1.125h0a.83.83,0,0,0-.444-.407h0a.827.827,0,0,0-.677.032" transform="translate(1376.811 -515.379)" fill="#fff"/>
    <path id="Trazado_114" data-name="Trazado 114" d="M-1560.688,434.274a.494.494,0,0,0-.221.662h0a.491.491,0,0,0,.66.224h0a.492.492,0,0,0,.22-.664h0a.48.48,0,0,0-.26-.24h0a.487.487,0,0,0-.4.018" transform="translate(1569.42 -434.003)" fill="#fff"/>
    <path id="Trazado_115" data-name="Trazado 115" d="M-1386.31,490.315a.752.752,0,0,0-.336,1.012h0a.746.746,0,0,0,1,.339h0a.757.757,0,0,0,.341-1.012h0a.768.768,0,0,0-.4-.369h0a.746.746,0,0,0-.608.03" transform="translate(1407.878 -485.918)" fill="#fff"/>
    <path id="Trazado_116" data-name="Trazado 116" d="M-1513.712,436.473a.555.555,0,0,0-.246.739h0a.548.548,0,0,0,.735.249h0a.556.556,0,0,0,.249-.739h0a.565.565,0,0,0-.3-.266h0a.555.555,0,0,0-.442.018" transform="translate(1525.893 -436.039)" fill="#fff"/>
    <path id="Trazado_117" data-name="Trazado 117" d="M-1425.142,464.97a.677.677,0,0,0-.3.91h0a.673.673,0,0,0,.9.306h0a.68.68,0,0,0,.305-.911h0a.666.666,0,0,0-.359-.33h0a.671.671,0,0,0-.547.025" transform="translate(1443.842 -462.436)" fill="#fff"/>
    <path id="Trazado_118" data-name="Trazado 118" d="M-1468.068,446.812a.611.611,0,0,0-.273.818h0a.609.609,0,0,0,.817.275h0a.617.617,0,0,0,.275-.82h0a.605.605,0,0,0-.324-.3h0a.6.6,0,0,0-.494.024" transform="translate(1483.606 -445.612)" fill="#fff"/>
  </g>
  <path id="Trazado_119" data-name="Trazado 119" d="M-1643.418,643.2v-2.8c0-1.336-.762-1.985-2.329-1.985-.975,0-1.259.011-1.326.02-.82.108-.814.461-.812.576,0,.366.005.439.008.453.027.159.092.2.161.206s.1-.009.1-.009l.525-.053a12.693,12.693,0,0,1,1.273-.057,2.409,2.409,0,0,1,.664.065.546.546,0,0,1,.416.5s0,.151-.041.167a4.3,4.3,0,0,1-.8.2c-.76.143-1.158.219-1.215.232-.993.251-1.476.742-1.476,1.5,0,1.125.8,1.671,2.45,1.671a10.89,10.89,0,0,0,1.956-.15A.484.484,0,0,0-1643.418,643.2Zm-1.3-.6a.111.111,0,0,1-.092.109,5.711,5.711,0,0,1-.941.062c-.3,0-1.2,0-1.2-.564,0-.185.083-.42.474-.492l1.631-.312a.11.11,0,0,1,.091.024.111.111,0,0,1,.04.085Z" transform="translate(1688.093 -623.259)" fill="#fff"/>
  <path id="Trazado_120" data-name="Trazado 120" d="M-1911.839,643.2v-2.8c0-1.336-.762-1.985-2.329-1.985-.975,0-1.259.011-1.326.02-.82.108-.814.461-.812.576,0,.366.005.439.008.453.027.159.092.2.161.206s.1-.009.1-.009l.525-.053a12.7,12.7,0,0,1,1.273-.057,2.409,2.409,0,0,1,.664.065.546.546,0,0,1,.416.5s0,.151-.041.167a4.3,4.3,0,0,1-.8.2c-.76.143-1.158.219-1.215.232-.993.251-1.476.742-1.476,1.5,0,1.125.8,1.671,2.451,1.671a10.889,10.889,0,0,0,1.956-.15A.485.485,0,0,0-1911.839,643.2Zm-1.3-.6a.111.111,0,0,1-.092.109,5.711,5.711,0,0,1-.941.062c-.3,0-1.2,0-1.2-.564,0-.185.083-.42.475-.492l1.631-.312a.11.11,0,0,1,.091.024.111.111,0,0,1,.04.085Z" transform="translate(1936.961 -623.259)" fill="#fff"/>
  <path id="Trazado_121" data-name="Trazado 121" d="M-1727.443,642.823c-.039-.208-.139-.208-.182-.208l-.689.041c-.351.033-.7.05-1.025.05a3.236,3.236,0,0,1-.776-.064.844.844,0,0,1-.6-.535.11.11,0,0,1,.008-.094.11.11,0,0,1,.076-.054l1.764-.314a5.268,5.268,0,0,0,.768-.177,1.971,1.971,0,0,0,.591-.364,1.379,1.379,0,0,0,.4-1.08c0-1.084-.8-1.61-2.44-1.61a2.7,2.7,0,0,0-2,.64,2.876,2.876,0,0,0-.619,2.044,3,3,0,0,0,.641,2.1,2.676,2.676,0,0,0,2.032.684,12.415,12.415,0,0,0,1.616-.07c.33-.053.473-.208.462-.5Zm-3.359-1.923a.111.111,0,0,1-.039-.088,1.436,1.436,0,0,1,.318-1.031,1.54,1.54,0,0,1,1.052-.273c.689,0,1.038.18,1.038.536a.479.479,0,0,1-.263.464,2.674,2.674,0,0,1-.644.162l-1.371.254-.02,0A.11.11,0,0,1-1730.8,640.9Z" transform="translate(1765.875 -623.259)" fill="#fff"/>
  <path id="Trazado_122" data-name="Trazado 122" d="M-1529.5,642.823c-.039-.208-.139-.208-.182-.208l-.689.041c-.351.033-.7.05-1.025.05a3.238,3.238,0,0,1-.776-.064.843.843,0,0,1-.6-.535.11.11,0,0,1,.008-.094.11.11,0,0,1,.076-.054l1.764-.314a5.277,5.277,0,0,0,.768-.177,1.967,1.967,0,0,0,.591-.364,1.379,1.379,0,0,0,.4-1.08c0-1.084-.8-1.61-2.44-1.61a2.7,2.7,0,0,0-2,.64,2.876,2.876,0,0,0-.619,2.044,3,3,0,0,0,.641,2.1,2.676,2.676,0,0,0,2.032.684,12.416,12.416,0,0,0,1.616-.07c.33-.053.473-.208.462-.5Zm-3.359-1.923a.111.111,0,0,1-.039-.088,1.437,1.437,0,0,1,.318-1.031,1.54,1.54,0,0,1,1.053-.273c.689,0,1.038.18,1.038.536a.479.479,0,0,1-.263.464,2.676,2.676,0,0,1-.644.162l-1.371.254-.02,0A.109.109,0,0,1-1532.859,640.9Z" transform="translate(1582.351 -623.259)" fill="#fff"/>
  <path id="Trazado_123" data-name="Trazado 123" d="M-2189.107,611.523v4.84h1.079c.183,0,.394-.053.394-.466v-6.742c0-.249-.117-.355-.393-.355h-1.081l-2.038,2.62a.108.108,0,0,1-.084.046h0a.11.11,0,0,1-.09-.046l-1.816-2.62h-1.34a.348.348,0,0,0-.357.355v7.209h1.079a.4.4,0,0,0,.394-.466v-4.374a.11.11,0,0,1,.077-.106.111.111,0,0,1,.124.043l1.442,2.072a.1.1,0,0,0,.07.027h.827a.1.1,0,0,0,.071-.027l1.442-2.072a.111.111,0,0,1,.124-.043.111.111,0,0,1,.077.106" transform="translate(2194.832 -595.81)" fill="#fff"/>
  <path id="Trazado_124" data-name="Trazado 124" d="M-2144.222,644.608" transform="translate(2147.909 -629)" fill="#fff"/>
  <g id="Grupo_62" data-name="Grupo 62" transform="translate(8.158 15.155)">
    <path id="Trazado_125" data-name="Trazado 125" d="M-2078.087,643.309l-.02-.486c-.039-.208-.139-.208-.182-.208l-.689.041c-.351.033-.7.05-1.024.05a3.232,3.232,0,0,1-.775-.064.842.842,0,0,1-.6-.535.11.11,0,0,1,.008-.094.11.11,0,0,1,.076-.054l1.764-.314a5.257,5.257,0,0,0,.767-.177,1.962,1.962,0,0,0,.591-.364,1.378,1.378,0,0,0,.4-1.08c0-1.084-.8-1.61-2.44-1.61a2.7,2.7,0,0,0-2,.64,2.876,2.876,0,0,0-.619,2.044,3,3,0,0,0,.641,2.1,2.675,2.675,0,0,0,2.031.684,12.429,12.429,0,0,0,1.616-.07C-2078.219,643.76-2078.076,643.6-2078.087,643.309Zm-3.379-2.409a.114.114,0,0,1-.039-.088,1.437,1.437,0,0,1,.318-1.031,1.54,1.54,0,0,1,1.053-.273c.688,0,1.038.18,1.038.536a.479.479,0,0,1-.262.464,2.683,2.683,0,0,1-.645.162l-1.371.254-.02,0A.111.111,0,0,1-2081.467,640.9Z" transform="translate(2082.837 -638.414)" fill="#fff"/>
  </g>
  <path id="Trazado_126" data-name="Trazado 126" d="M-1998.3,644.634c-.172,0-.271.089-.271.2l-.01.342a.487.487,0,0,0,.442.581,10.411,10.411,0,0,0,1.676.109,2.679,2.679,0,0,0,1.987-.6,3,3,0,0,0,.544-2.026v-4.125a.475.475,0,0,0-.444-.518,9.934,9.934,0,0,0-1.865-.18,2.911,2.911,0,0,0-2.1.631,2.941,2.941,0,0,0-.628,2.114,2.605,2.605,0,0,0,.672,1.984,2.906,2.906,0,0,0,2.018.6c.4,0,.722-.007.954-.02a.111.111,0,0,1,.085.033.11.11,0,0,1,.031.086,1,1,0,0,1-.216.657,1.654,1.654,0,0,1-1.068.236c-.47,0-.9-.017-1.283-.051m2.568-2.267a.111.111,0,0,1-.09.109,5.133,5.133,0,0,1-.919.063,1.612,1.612,0,0,1-1.125-.295,1.529,1.529,0,0,1-.306-1.112,1.948,1.948,0,0,1,.316-1.346,1.8,1.8,0,0,1,1.185-.264c.282,0,.564.014.838.041a.111.111,0,0,1,.1.11Z" transform="translate(2013.241 -623.259)" fill="#fff"/>
  <path id="Trazado_127" data-name="Trazado 127" d="M-1827.487,612.373c0-2.5-1.075-3.716-3.287-3.716h-3.045c-.021.006-.031.025-.031.072v7.431c0,.066.019.069.046.073h2.838a3.348,3.348,0,0,0,2.708-1A4.437,4.437,0,0,0-1827.487,612.373Zm-1.9,1.658a1.61,1.61,0,0,1-1.379.912c-.515,0-.964,0-1.36.011h0a.11.11,0,0,1-.077-.032.11.11,0,0,1-.033-.079v-4.779a.11.11,0,0,1,.11-.111h1.351c1.11,0,1.673.814,1.673,2.419A3.934,3.934,0,0,1-1829.385,614.031Z" transform="translate(1860.146 -595.678)" fill="#fff"/>
  <path id="Trazado_128" data-name="Trazado 128" d="M-1566.084,608.657c-.412,0-.6.184-.6.6v6.773c0,.122.039.2.232.2h.856c.155,0,.212-.055.212-.2V608.87c0-.155-.057-.213-.212-.213Z" transform="translate(1612.437 -595.678)" fill="#fff"/>
  <path id="Trazado_129" data-name="Trazado 129" d="M-1448.4,638.281c-1.412,0-2.1.639-2.1,1.954v3.24c0,.155.057.213.212.213h.877c.155,0,.212-.058.212-.213v-3.412c0-.286.131-.627.755-.627h1.1c.132,0,.21-.037.221-.215l.01-.179v-.183c0-.417-.213-.5-.372-.53A6.2,6.2,0,0,0-1448.4,638.281Z" transform="translate(1504.715 -623.135)" fill="#fff"/>
  <g id="Grupo_77" data-name="Grupo 77" transform="translate(14.267 23.517)">
    <g id="Grupo_63" data-name="Grupo 63" transform="translate(0 0)">
      <path id="Trazado_130" data-name="Trazado 130" d="M-1996.408,754.815a.736.736,0,0,1-.524.755,1.548,1.548,0,0,1-.5.058h-1.543v-2.9h1.543a1.128,1.128,0,0,1,.652.166.667.667,0,0,1,.281.588.623.623,0,0,1-.454.617.718.718,0,0,1,.4.258A.728.728,0,0,1-1996.408,754.815Zm-.524-1.3a.379.379,0,0,0-.181-.365,1.1,1.1,0,0,0-.47-.075h-.974v.878h.974a1.038,1.038,0,0,0,.47-.078A.368.368,0,0,0-1996.932,753.51Zm.087,1.276q0-.492-.565-.493h-1.147v.989h1.147a.638.638,0,0,0,.4-.115A.457.457,0,0,0-1996.845,754.786Z" transform="translate(1998.974 -752.727)" fill="#fff"/>
    </g>
    <g id="Grupo_64" data-name="Grupo 64" transform="translate(3.082 0.759)">
      <path id="Trazado_131" data-name="Trazado 131" d="M-1954.322,764.281h-1.918a.672.672,0,0,0,.742.738.94.94,0,0,0,.512-.114.5.5,0,0,0,.21-.313h.429a.828.828,0,0,1-.363.54,1.48,1.48,0,0,1-.776.168,1.241,1.241,0,0,1-.875-.284,1.043,1.043,0,0,1-.306-.8,1.078,1.078,0,0,1,.3-.8,1.213,1.213,0,0,1,.9-.314q1.118,0,1.143,1.024Zm-.42-.282q-.021-.621-.746-.621a.786.786,0,0,0-.54.172.619.619,0,0,0-.213.45Z" transform="translate(1956.666 -763.096)" fill="#fff"/>
    </g>
    <g id="Grupo_65" data-name="Grupo 65" transform="translate(5.9 0.759)">
      <path id="Trazado_132" data-name="Trazado 132" d="M-1915.84,764.674q0,.626-1.057.626-1.073,0-1.085-.688h.413q0,.4.652.4t.664-.309a.255.255,0,0,0-.165-.241,1.5,1.5,0,0,0-.387-.094l-.347-.054a1.346,1.346,0,0,1-.5-.154.5.5,0,0,1-.268-.459.494.494,0,0,1,.277-.456,1.516,1.516,0,0,1,.73-.145q1.018,0,1.04.646h-.413q0-.365-.632-.364c-.393,0-.59.1-.59.289a.236.236,0,0,0,.157.226,1.423,1.423,0,0,0,.339.082l.342.059a1.71,1.71,0,0,1,.57.178A.506.506,0,0,1-1915.84,764.674Z" transform="translate(1917.982 -763.096)" fill="#fff"/>
    </g>
    <g id="Grupo_66" data-name="Grupo 66" transform="translate(8.351 0.248)">
      <path id="Trazado_133" data-name="Trazado 133" d="M-1882.783,756.965h-.643v1.347a.2.2,0,0,0,.056.166.332.332,0,0,0,.2.045,1.568,1.568,0,0,0,.372-.053v.3a1.685,1.685,0,0,1-.433.062.725.725,0,0,1-.464-.114.52.52,0,0,1-.134-.412v-1.343h-.508v-.273h.508v-.443l.4-.129v.572h.643Z" transform="translate(1884.338 -756.12)" fill="#fff"/>
    </g>
    <g id="Grupo_67" data-name="Grupo 67" transform="translate(12.051 0)">
      <path id="Trazado_134" data-name="Trazado 134" d="M-1829.818,755.627h-.417v-2.635l-1.242,2.635h-.4l-1.25-2.635v2.635h-.409v-2.9h.706l1.006,2.109a4.009,4.009,0,0,1,.161.389c.046-.126.1-.256.165-.389l.993-2.109h.686Z" transform="translate(1833.536 -752.727)" fill="#fff"/>
    </g>
    <g id="Grupo_68" data-name="Grupo 68" transform="translate(16.495 0.759)">
      <path id="Trazado_135" data-name="Trazado 135" d="M-1770.308,765.238h-.392l-.021-.318a1.121,1.121,0,0,1-.878.381,1.673,1.673,0,0,1-.467-.054.586.586,0,0,1-.471-.6.584.584,0,0,1,.425-.588,2.349,2.349,0,0,1,.8-.1h.578a.589.589,0,0,0-.143-.456.8.8,0,0,0-.518-.124c-.383,0-.58.111-.594.334h-.421q.034-.615,1-.616,1.081,0,1.081.75v.953C-1770.332,764.859-1770.324,765.006-1770.308,765.238Zm-.428-.858v-.158h-.615a1.783,1.783,0,0,0-.533.062.352.352,0,0,0-.227.359c0,.217.156.337.47.359.042,0,.088,0,.141,0a.848.848,0,0,0,.551-.173A.561.561,0,0,0-1770.736,764.38Z" transform="translate(1772.536 -763.096)" fill="#fff"/>
    </g>
    <g id="Grupo_69" data-name="Grupo 69" transform="translate(19.544 0.759)">
      <path id="Trazado_136" data-name="Trazado 136" d="M-1728.386,765.238h-.4V764q0-.6-.656-.605a.781.781,0,0,0-.6.223.814.814,0,0,0-.208.585v1.031h-.4v-1.686c0-.124-.006-.255-.016-.393h.4l.016.382a1.011,1.011,0,0,1,.891-.444q.739,0,.923.51a1.2,1.2,0,0,1,.054.4Z" transform="translate(1730.675 -763.096)" fill="#fff"/>
    </g>
    <g id="Grupo_70" data-name="Grupo 70" transform="translate(22.56 0.759)">
      <path id="Trazado_137" data-name="Trazado 137" d="M-1687.044,765.238h-.392l-.021-.318a1.123,1.123,0,0,1-.879.381,1.666,1.666,0,0,1-.466-.054.584.584,0,0,1-.47-.6.583.583,0,0,1,.424-.588,2.355,2.355,0,0,1,.8-.1h.578a.588.588,0,0,0-.143-.456.8.8,0,0,0-.517-.124q-.574,0-.594.334h-.421q.034-.615,1-.616,1.082,0,1.081.75v.953C-1687.068,764.859-1687.061,765.006-1687.044,765.238Zm-.428-.858v-.158h-.616a1.773,1.773,0,0,0-.531.062.352.352,0,0,0-.228.359c0,.217.158.337.471.359.041,0,.088,0,.141,0a.848.848,0,0,0,.551-.173A.562.562,0,0,0-1687.472,764.38Z" transform="translate(1689.271 -763.096)" fill="#fff"/>
    </g>
    <g id="Grupo_71" data-name="Grupo 71" transform="translate(25.448 0.759)">
      <path id="Trazado_138" data-name="Trazado 138" d="M-1647.165,763.158q-.016.24-.016.372v1.337a1.2,1.2,0,0,1-.313.948,1.488,1.488,0,0,1-.97.247,1.534,1.534,0,0,1-.726-.136.67.67,0,0,1-.334-.531h.43a.419.419,0,0,0,.218.3,1.107,1.107,0,0,0,.5.089.722.722,0,0,0,.628-.261,1.32,1.32,0,0,0,.164-.746.908.908,0,0,1-.367.3,1.224,1.224,0,0,1-.549.124,1.186,1.186,0,0,1-.842-.274.986.986,0,0,1-.293-.757,1.008,1.008,0,0,1,.318-.788,1.262,1.262,0,0,1,.876-.286,1.075,1.075,0,0,1,.544.138.868.868,0,0,1,.314.276l.012-.352Zm-.42.99a.757.757,0,0,0-.21-.561.811.811,0,0,0-.6-.208.828.828,0,0,0-.622.221.755.755,0,0,0-.195.549q0,.771.817.772a.807.807,0,0,0,.6-.221A.761.761,0,0,0-1647.585,764.148Z" transform="translate(1649.636 -763.096)" fill="#fff"/>
    </g>
    <g id="Grupo_72" data-name="Grupo 72" transform="translate(28.596 0.759)">
      <path id="Trazado_139" data-name="Trazado 139" d="M-1604.071,764.281h-1.918a.673.673,0,0,0,.743.738.942.942,0,0,0,.512-.114.5.5,0,0,0,.21-.313h.429a.828.828,0,0,1-.363.54,1.482,1.482,0,0,1-.776.168,1.241,1.241,0,0,1-.874-.284,1.042,1.042,0,0,1-.305-.8,1.078,1.078,0,0,1,.3-.8,1.213,1.213,0,0,1,.9-.314q1.12,0,1.144,1.024Zm-.42-.282q-.021-.621-.745-.621a.783.783,0,0,0-.539.172.614.614,0,0,0-.214.45Z" transform="translate(1606.414 -763.096)" fill="#fff"/>
    </g>
    <g id="Grupo_73" data-name="Grupo 73" transform="translate(31.6 0.759)">
      <path id="Trazado_140" data-name="Trazado 140" d="M-1561.372,765.238h-.4v-1.214a.688.688,0,0,0-.144-.5.627.627,0,0,0-.437-.125.64.64,0,0,0-.533.248.841.841,0,0,0-.173.539v1.052h-.4v-1.172q0-.666-.541-.667a.7.7,0,0,0-.6.265.921.921,0,0,0-.158.564v1.01h-.4v-1.657c0-.122-.006-.263-.017-.423h.4l.016.4a.9.9,0,0,1,.813-.46.752.752,0,0,1,.8.476,1.213,1.213,0,0,1,.305-.328,1.091,1.091,0,0,1,.6-.149.822.822,0,0,1,.776.389.9.9,0,0,1,.1.444Z" transform="translate(1565.181 -763.096)" fill="#fff"/>
    </g>
    <g id="Grupo_74" data-name="Grupo 74" transform="translate(36.109 0.759)">
      <path id="Trazado_141" data-name="Trazado 141" d="M-1500.931,764.281h-1.918a.671.671,0,0,0,.742.738.939.939,0,0,0,.511-.114.5.5,0,0,0,.211-.313h.429a.834.834,0,0,1-.363.54,1.484,1.484,0,0,1-.776.168,1.244,1.244,0,0,1-.875-.284,1.043,1.043,0,0,1-.305-.8,1.079,1.079,0,0,1,.3-.8,1.213,1.213,0,0,1,.9-.314q1.118,0,1.144,1.024Zm-.421-.282q-.021-.621-.745-.621a.787.787,0,0,0-.54.172.612.612,0,0,0-.212.45Z" transform="translate(1503.275 -763.096)" fill="#fff"/>
    </g>
    <g id="Grupo_75" data-name="Grupo 75" transform="translate(39.113 0.759)">
      <path id="Trazado_142" data-name="Trazado 142" d="M-1459.753,765.238h-.4V764q0-.6-.656-.605a.779.779,0,0,0-.6.223.815.815,0,0,0-.209.585v1.031h-.4v-1.686c0-.124,0-.255-.017-.393h.4l.016.382a1.013,1.013,0,0,1,.892-.444c.493,0,.8.17.925.51a1.227,1.227,0,0,1,.053.4Z" transform="translate(1462.042 -763.096)" fill="#fff"/>
    </g>
    <g id="Grupo_76" data-name="Grupo 76" transform="translate(41.898 0.248)">
      <path id="Trazado_143" data-name="Trazado 143" d="M-1422.257,756.965h-.644v1.347a.2.2,0,0,0,.056.166.334.334,0,0,0,.2.045,1.569,1.569,0,0,0,.371-.053v.3a1.681,1.681,0,0,1-.433.062.729.729,0,0,1-.465-.114.523.523,0,0,1-.134-.412v-1.343h-.507v-.273h.507v-.443l.4-.129v.572h.644Z" transform="translate(1423.812 -756.12)" fill="#fff"/>
    </g>
  </g>
  <path id="Trazado_144" data-name="Trazado 144" d="M-2138.72,673.441" transform="translate(2142.807 -655.723)" fill="#fff"/>
  <path id="Trazado_145" data-name="Trazado 145" d="M-2100.9,608.8" transform="translate(2107.743 -595.81)" fill="#fff"/>
</svg>
