<svg xmlns="http://www.w3.org/2000/svg" width="65" height="65" viewBox="0 0 65 65">
  <g id="Grupo_78" data-name="Grupo 78" transform="translate(-2943.381 -1516.794)">
    <rect id="Rectángulo_5" data-name="Rectángulo 5" width="65" height="65" rx="5" transform="translate(2943.381 1516.794)" fill="#dbdbdb"/>
    <path id="Trazado_146" data-name="Trazado 146" d="M3127.831,1707.4c-.549-1.11-4.514-3.97-6.659-4.62a43.113,43.113,0,0,1-5.757-2.124l.026-.021-.259-.388c.083-.08.1-.131.039-.147-.632-.158-1.666-5.994-1.666-5.994a.761.761,0,0,0-.009.108v-.108c-1.04-.243-2.017-.457-3.021-.641a33.093,33.093,0,0,1-.485-5.175,11.8,11.8,0,0,0,2.279-3.536,39.026,39.026,0,0,0,1.026-3.845,1.585,1.585,0,0,0,1.14-.565c.457-.565.571-4.184.913-5.2s.57-2.714-.571-2.6a1.207,1.207,0,0,0-.584.232,11.86,11.86,0,0,1,1.37-2.653s1.055-6.39.844-6.816,1.055-.958-.844-4.473-10.337-8.626-13.818-9.052-8.333,0-10.337,5.538a8.107,8.107,0,0,0-6.012,6.709c-.738,5.538,3.375,9.478,3.375,11.182v.021c-.224-.589-.471-1.062-.705-1.14-.685-.226-1.941-.226-1.712,2.488s.505.613,1.484,5.654c.571,2.94,1.6.678,1.6.678a25.74,25.74,0,0,0,3.242,8.035c.007,1.169.027,3.022.079,4.512q-1.459.277-2.92.65v.124a.466.466,0,0,0-.014-.07s-1,5.847-1.633,6.012c-.088.023-.016.115.178.257l-.736.557a5.958,5.958,0,0,1-1.059.642l-1.945.918-1.594.413a8.149,8.149,0,0,0-3.6,2.011l-3.269,3.14h51.911S3128.145,1708.037,3127.831,1707.4Z" transform="translate(-126.29 -126.317)" fill="#babab9"/>
  </g>
</svg>
