<?xml version="1.0" encoding="utf-8"?>
<!-- Generator: Adobe Illustrator 24.2.0, SVG Export Plug-In . SVG Version: 6.00 Build 0)  -->
<svg version="1.1" id="Capa_1" xmlns="http://www.w3.org/2000/svg" xmlns:xlink="http://www.w3.org/1999/xlink" x="0px" y="0px"
	 viewBox="0 0 670 125" style="enable-background:new 0 0 670 125;" xml:space="preserve">
<style type="text/css">
	.st0{fill-rule:evenodd;clip-rule:evenodd;fill:#FFFFFF;}
</style>
<g>
	<path class="st0" d="M99.03,92.94c6.63,0.05,11.95-13.33,12.1-30.11l0,0l0,0.24c-3.92,0.21-8.1,0.42-12.27,0.39
		c-4.17-0.03-8.35-0.3-12.27-0.58l0,0l0-0.24C86.93,79.42,92.4,92.89,99.03,92.94L99.03,92.94L99.03,92.94z M98.79,50.04
		c3.93,0.03,7.61,0.06,11.29-0.15l0,0l0,0c-1.78-11.76-6.24-19.94-11.4-19.98c-5.15-0.04-9.53,8.08-11.18,19.81l0,0l0,0
		C91.19,49.98,94.87,50.01,98.79,50.04L98.79,50.04z M104.27,109.03c36.81-1.4,65.41-22.27,65.26-47.91
		c-0.05-8.87-3.29-17.04-9.21-24.04l0,0v-0.24c-0.43,11.98-17.55,21.67-41.59,25.33l0,0l0,0c0.01,0.72,0.26,1.44,0.26,2.16
		C119.11,85.9,112.83,104.07,104.27,109.03L104.27,109.03L104.27,109.03L104.27,109.03z M98.61,17.92
		c8.84,0.07,16.27,13.06,19.07,31.06l0,0l0,0c16.92-2.51,28.67-8.41,28.63-15.36c-0.05-9.11-21.44-16.94-47.7-17.14
		c-26.26-0.2-47.57,7.3-47.52,16.41c0.04,6.95,11.85,13.03,28.8,15.8l0,0l0,0C82.49,30.74,89.78,17.86,98.61,17.92L98.61,17.92
		L98.61,17.92z M17.13,61.87c-0.16-28.76,36.28-51.73,81.44-51.38c45.16,0.35,81.86,23.87,82.02,52.63
		c0.16,28.52-36.28,51.73-81.44,51.38C53.99,114.16,17.29,90.4,17.13,61.87L17.13,61.87L17.13,61.87z M93.96,108.96
		c-8.61-5.1-15.1-23.36-15.22-44.93c0-0.72-0.01-1.44,0.23-2.15l0,0l0,0C54.91,57.85,37.67,47.89,37.11,35.9l0,0v0.24
		c-5.85,6.9-9,15.03-8.95,23.9c0.14,25.64,28.98,46.95,65.55,48.91l0,0L93.96,108.96L93.96,108.96z M393.72,98.42V71.19l29.44-44.61
		h-19.71l-18.33,30.49l-18.67-30.49h-19.72l29.86,44.61v27.23H393.72L393.72,98.42z M305.69,86.64
		c12.66,0.09,22.57-10.59,22.5-23.86c-0.08-13.27-10.12-24.1-22.77-24.2c-12.42-0.09-22.33,10.59-22.26,23.86
		C283.23,75.72,293.28,86.55,305.69,86.64L305.69,86.64z M265.39,62.32c-0.12-21.05,17.79-37.86,39.94-37.69
		c22.39,0.16,40.51,17.23,40.63,38.28c0.12,20.82-17.79,37.63-40.19,37.46C284.84,100.22,265.51,84.09,265.39,62.32L265.39,62.32z
		 M237.36,40.05v58.18l-17.38-0.13V40.05h-23.61l-0.07-13.27h64.5l0.08,13.27H237.36L237.36,40.05z M621.31,70.12l-10.62-26.39
		h-0.25l-10.56,26.24L621.31,70.12L621.31,70.12z M595.09,82.29l-6.48,16.07h-19.72l30.99-71.71h21.18l31.81,71.71h-19.96
		l-6.66-16.07H595.09L595.09,82.29z M464.64,86.64c12.41,0.09,22.58-10.59,22.5-23.86c-0.08-13.27-10.36-24.1-22.78-24.2
		c-12.41-0.09-22.33,10.59-22.25,23.86C442.18,74.92,451.6,86.54,464.64,86.64L464.64,86.64z M424.1,62.32
		c-0.12-21.05,18.04-37.85,40.19-37.69c22.39,0.16,40.5,17.23,40.62,38.28c0.12,20.83-17.8,37.63-40.19,37.46
		C443.83,100.22,424.22,84.14,424.1,62.32L424.1,62.32z M550.99,40.05v58.18l-17.38-0.13V40.05H510l-0.07-13.27h64.51l0.08,13.27
		H550.99L550.99,40.05z"/>
</g>
</svg>
