<?xml version="1.0" encoding="utf-8"?>
<!-- Generator: Adobe Illustrator 25.2.3, SVG Export Plug-In . SVG Version: 6.00 Build 0)  -->
<svg version="1.1" id="Capa_1" xmlns="http://www.w3.org/2000/svg" xmlns:xlink="http://www.w3.org/1999/xlink" x="0px" y="0px"
	 viewBox="0 0 229.1 50.1" style="enable-background:new 0 0 229.1 50.1;" xml:space="preserve">
<style type="text/css">
	.st0{fill-rule:evenodd;clip-rule:evenodd;}
</style>
<g>
	<path class="st0" d="M213.7,24h-15.9l0,0c0.2-2,1.6-4,4.1-4c2.1,0,18.7,0,18.7,0l0,0v-3.8h-19.6l0,0c-7.8,0-11,5.9-11,11.6
		c0,0,21.1,0,21.8,0c0.7,0,2.5,0.2,2.5,1.9c0,1.8-1.5,1.9-4.1,2l0,0h-22.8V16.2h-6.7v15.6h-12.8l0,0c-3.9,0-4.3-2.8-4.3-4.4
		c0-1.7,0-11.2,0-11.2l0,0h-12.2l-9.9,6.6l-9-6.6h-26.1l0,0c-7.8,0-12.5,5.4-13.1,10.1l0,0h5.4l0,0c-2.2,1.5-3.7,3.4-4.5,5.4l0,0
		l-15.2,0l0,0c-3.9,0-4.3-2.8-4.3-4.4c0-1.7,0-11.2,0-11.2l0,0h-6.7v10.6l0,0c0,7.3,5.1,8.8,7.6,8.8c3.6,0,53.6,0,53.6,0l0,0l10-6.7
		l9.1,6.7H159l-14.1-10.4l11.6-7.8v10.2l0,0c0,6.6,6.5,7.9,8.3,7.9l0,0h48.9l0,0c2.4,0,9.1-0.3,9.1-5.6S217.8,24,213.7,24L213.7,24
		L213.7,24L213.7,24z M128.2,31.8H103l0,0c0.2-2,2.4-4,4.9-4l0,0h14.9V24h-20.3l0,0c0.2-2,2.4-4,4.9-4c2.1,0,17,0,17,0l0,0v-2.2
		l11.8,8.7L128.2,31.8L128.2,31.8L128.2,31.8z"/>
	<path class="st0" d="M33,44.1c8.8,0,16.6-3.1,21.4-7.8l0,0l-4.4,0l0,0C46,39.8,40,42,33.1,42c-12.7,0-22.7-7.6-22.7-17
		c0-10.8,9.9-17,22.7-17c0.8,0,1.5,0.4,1,1.1c-2.6,3.2-10.2,13.4-11.6,15.7c-2.7,4.4-2.6,9.8,4,10.2l0,0h27.9l0,0
		c1.4,0,1.8-0.7,2.3-1.4c1.9-2.5,2.8-5.5,2.8-8.6c0-8-5.7-14.1-14-17l0,0l-1.3,1.9l0,0c6.9,2.6,11.5,7.7,11.5,15.1
		c0,1.3-0.2,2.5-0.5,3.7c-0.3,1-0.9,1.9-2.1,1.9l0,0H30.9l0,0c-2.9,0-1.8-2.9-0.7-4.4c1.5-2.7,9.9-14.2,12-16.3c0.5-0.8,2-2.4,0-3
		c-2.8-0.7-5.9-1-9.1-1C18.3,5.9,6.4,13.5,6.4,25C6.4,36.7,18.3,44.1,33,44.1L33,44.1L33,44.1L33,44.1z"/>
</g>
</svg>
