<?xml version="1.0" encoding="utf-8"?>
<!-- Generator: Adobe Illustrator 24.2.0, SVG Export Plug-In . SVG Version: 6.00 Build 0)  -->
<svg version="1.1" id="Capa_1" xmlns="http://www.w3.org/2000/svg" xmlns:xlink="http://www.w3.org/1999/xlink" x="0px" y="0px"
	 viewBox="0 0 200 200" style="enable-background:new 0 0 200 200;" xml:space="preserve">
<style type="text/css">
	.st0{fill:#FFFFFF;}
</style>
<g>
	<polygon class="st0" points="26.2,83.83 14.25,95.78 26.2,102.46 	"/>
	<polygon class="st0" points="173.8,87.35 173.8,105.62 185.4,99.3 	"/>
	<path class="st0" d="M105.27,150.61c-3.16,1.76-7.03,1.76-10.19,0l-82.94-48.15v92.43c0,2.11,1.41,3.51,3.51,3.51h168.69
		c2.11,0,3.51-1.41,3.51-3.51v-88.91L105.27,150.61z M50.8,184.34H22.68v-7.03H50.8V184.34z"/>
	<path class="st0" d="M33.23,1.6v105.08l65.02,37.6c1.05,0.7,2.46,0.7,3.51,0l65.02-35.14V1.6H33.23z M127.06,21.63L100,48.69
		l-13-13l4.92-4.92l8.08,8.08l22.14-22.14L127.06,21.63z M119.31,118.61c0,2.29-1.86,4.14-4.14,4.14H84.77
		c-2.29,0-4.14-1.86-4.14-4.14v-3.59c0-6.41,5.2-11.6,11.6-11.6h1.44c1.93,0.88,4.05,1.38,6.29,1.38c2.24,0,4.38-0.5,6.29-1.38h1.44
		c6.41,0,11.6,5.2,11.6,11.6V118.61z M88.91,89.6c0-6.1,4.95-11.05,11.05-11.05c6.1,0,11.05,4.95,11.05,11.05
		s-4.95,11.05-11.05,11.05C93.86,100.65,88.91,95.7,88.91,89.6z M100,64.86c-15.46,0-28.11-12.65-28.11-28.11S84.54,8.63,100,8.63
		c4.22,0,8.43,1.05,11.95,2.81l-3.16,6.33c-2.46-1.41-5.62-2.11-8.79-2.11c-11.6,0-21.09,9.49-21.09,21.09
		c0,11.6,9.49,21.09,21.09,21.09c11.6,0,21.09-9.49,21.09-21.09h7.03C128.11,52.2,115.46,64.86,100,64.86z"/>
</g>
</svg>
